/* XPM */
static char *cc8578f4a68d4c20d8045e7a7cab8989xgqfFgUMwsWiRoNu[] = {
/* columns rows colors chars-per-pixel */
"64 64 237 2 ",
"   c None",
".  c #BA5B0B",
"X  c #B85917",
"o  c #AC5E13",
"O  c #B7690A",
"+  c #B36316",
"@  c #BA6718",
"#  c #BB7415",
"$  c #AA6911",
"%  c #B25622",
"&  c #B57239",
"*  c #C3720D",
"=  c #C67C0D",
"-  c #C46A1A",
";  c #C67C1B",
":  c #C67715",
">  c #C06D0D",
",  c #C47A29",
"<  c #C36E2F",
"1  c #BB8B34",
"2  c #CA8A0B",
"3  c #C58717",
"4  c #D98A17",
"5  c #DA9714",
"6  c #CF960F",
"7  c #E49A0E",
"8  c #E19514",
"9  c #E59B15",
"0  c #EB9C1C",
"q  c #E69A18",
"w  c #DFA90D",
"e  c #D6A916",
"r  c #CBA20D",
"t  c #E9A60E",
"y  c #F2AD0C",
"u  c #FEAE0F",
"i  c #F5BB05",
"p  c #FCBB05",
"a  c #F4B50D",
"s  c #FAB50E",
"d  c #F6BA0D",
"f  c #FBBC0C",
"g  c #E4A114",
"h  c #EEA314",
"j  c #E5A51D",
"k  c #EEA31B",
"l  c #E3AB1A",
"z  c #EBAA18",
"x  c #F4AD15",
"c  c #FBAC15",
"v  c #F2A61A",
"b  c #F5AC1A",
"n  c #FAAC1A",
"m  c #F4A517",
"M  c #ECB31B",
"N  c #EEB91C",
"B  c #E9B412",
"V  c #F5B414",
"C  c #FBB314",
"Z  c #F5BA13",
"A  c #FBBB12",
"S  c #F4B41A",
"D  c #FAB31A",
"F  c #F4BA1B",
"G  c #FABB1B",
"H  c #CA8726",
"J  c #CB9528",
"K  c #C88B34",
"L  c #D2922E",
"P  c #E59823",
"I  c #D3A528",
"U  c #D3AE31",
"Y  c #E7A923",
"T  c #F6A722",
"R  c #EEBC22",
"E  c #EAB62C",
"W  c #F9B522",
"Q  c #F4BD22",
"!  c #FCBD27",
"~  c #F3B520",
"^  c #E4A838",
"/  c #E7BB34",
"(  c #F4BF37",
")  c #F6C407",
"_  c #FBC406",
"`  c #F5CC06",
"'  c #FCCD05",
"]  c #F4C40D",
"[  c #FDC60D",
"{  c #FBC40B",
"}  c #F3CC0D",
"|  c #FCCB0B",
" . c #F6D304",
".. c #FBD404",
"X. c #F6DA04",
"o. c #FBD903",
"O. c #F5D40B",
"+. c #FBD30B",
"@. c #F5DA0B",
"#. c #F9DA0C",
"$. c #EAC61A",
"%. c #F4C414",
"&. c #FCC313",
"*. c #F5CB13",
"=. c #FBCA12",
"-. c #F4C51B",
";. c #FBC21D",
":. c #F4CB1C",
">. c #FBCB1B",
",. c #EED617",
"<. c #F4D414",
"1. c #FBD313",
"2. c #F5DB15",
"3. c #F9DA14",
"4. c #F5D41C",
"5. c #FCD51C",
"6. c #F5DB1C",
"7. c #FADB1B",
"8. c #EBCF0F",
"9. c #F6E118",
"0. c #EEC929",
"q. c #F3C625",
"w. c #FAC323",
"e. c #F4CA25",
"r. c #FACD24",
"t. c #F5CB2C",
"y. c #F9CA2D",
"u. c #F9C52C",
"i. c #F5D423",
"p. c #FAD222",
"a. c #F5DD24",
"s. c #FADC23",
"d. c #F5D52C",
"f. c #F4DC2C",
"g. c #FADD2B",
"h. c #F8D02F",
"j. c #F5C533",
"k. c #F6CA33",
"l. c #FACD33",
"z. c #F6CC3B",
"x. c #F8CB3C",
"c. c #EDDC3D",
"v. c #F4D636",
"b. c #FAD335",
"n. c #F5DD34",
"m. c #FBDE32",
"M. c #F5D23A",
"N. c #FBD53E",
"B. c #F7DB3B",
"V. c #FADC3A",
"C. c #E8C53A",
"Z. c #F4E324",
"A. c #F5E22C",
"S. c #F9E12D",
"D. c #FAE026",
"F. c #F6E332",
"G. c #FAE135",
"H. c #F6E23A",
"J. c #FAE13C",
"K. c #D89B46",
"L. c #C59749",
"P. c #DBA647",
"I. c #D9BA58",
"U. c #D2A55F",
"Y. c #EBBD46",
"T. c #E6BA58",
"R. c #E4B878",
"E. c #E4B56F",
"W. c #F9CE43",
"Q. c #F6CD4B",
"!. c #F7CE43",
"~. c #FAD543",
"^. c #F5DC42",
"/. c #FCDB43",
"(. c #FAD64E",
"). c #F4DA4C",
"_. c #FBDD4D",
"`. c #F6D547",
"'. c #E7C45D",
"]. c #F1C655",
"[. c #F5DA55",
"{. c #FDDD53",
"}. c #FBDD5D",
"|. c #F7D659",
" X c #FBE344",
".X c #F6E24A",
"XX c #FBE34B",
"oX c #F8E649",
"OX c #FBE453",
"+X c #FBEA55",
"@X c #FBE55B",
"#X c #FAE95C",
"$X c #F6E757",
"%X c #E8C364",
"&X c #F0C964",
"*X c #FADD6B",
"=X c #F0D568",
"-X c #F6DA70",
";X c #FCE664",
":X c #FBE963",
">X c #FBE56B",
",X c #FAE96D",
"<X c #F6E965",
"1X c #FBF162",
"2X c #FCE774",
"3X c #FBEA73",
"4X c #FCE57C",
"5X c #F7EB79",
"6X c #FBEB7B",
"7X c #F7EB73",
"8X c #FCF078",
"9X c #EED18F",
"0X c #F5D887",
"qX c #F0D692",
"wX c #FAED84",
"eX c #FAEE8B",
"rX c #FBE985",
"tX c #FBF18D",
"yX c #FBEE93",
"uX c #FBED9B",
"iX c #F8E793",
"pX c #FAF193",
"aX c #FDF29C",
"sX c #FBEEA3",
"dX c #FEEFA9",
"fX c #FCF2A2",
"gX c #FCF3AC",
"hX c #FBF8AF",
"jX c #FDF4B3",
"kX c #FDF5BC",
"lX c #FBFAB8",
"zX c #FDF6C5",
"xX c #FCF9C5",
"cX c #FEF7CA",
"vX c #FDF9C9",
"bX c #FBF9D2",
"nX c #FEF7D7",
/* pixels */
"                                                      k.w.;.&.&.[ =.>.l.M.                                                      ",
"                                                A &.&.G &.&.&.[ [ [ [ [ ] =.=.                                                  ",
"                                          &.f f A A { { { A G G G ! ;.&.| | ` _ | [ >.                                          ",
"                                    F A { f f f A D x t t 7 7 8 9 8 9 g y d { =.=.=.[ | %.e.                                    ",
"                                s d f p f A C v 9 8 8 9 0 0 v 0 h h 7 q q 5 4 g t d =.[ | =.&.                                  ",
"                              F f p f G b 5 P P h m b b T n n n n n n c m n v T 0 8 t F &.[ ' | *.                              ",
"                          S G G A f y q P T T n n c c c c c c c c c m c c m m u u c v 9 9 V &.+...'                             ",
"                        Z Z G A C 7 9 v T n n D n c c n c c c c c c c c c c c c c u c D z g j Z | | =.<.                        ",
"                      C f d A h 0 b n n n n n C C C C c u u c x c n n n n n c c c c c c V D j Y Z [ ' ' `                       ",
"                    d C s C v v n D c C C n n d f A Z &.Z &.=.%.f f d c n c c c c C c c x V a b z B [ ' ..+.                    ",
"                  A d s C x x D D C C C s f f { { [ >.M.).|.|.[.^.f.5.] &.d a D c s s C x c s x b b a _ ' ' <.                  ",
"                f D A s x V V D C V Z A [ | ' r.).rXfXkXxXxXvXvXlXjXfX4X).:.] ] s y C C C C c C C S V i _ ' | <.                ",
"              A A A V V C s C C V f [ +.+.p.|.uXjXxXxXbXnXnXnXnXbXbXbXvXzXyX_.:.{ { d C C C C C C C s M Z =.' | *.              ",
"              C V Z C V s d C C f |  .@.f.4XjXzXxXzXxXxXvXvXbXzXcXcXvXvXzXzXjXrXb.1.' A V s s s V i s V Z Z | | |               ",
"            s s Z A C A A d A f [ +.1.^.aXjXkXkXzXkXkXlXkXkXkXkXkXkXkXkXkXzXkXjXyX(.1.+.=.d d f d s Z V Z Z f | ' +.            ",
"          c s V d Z A f d Z ] | ' O.B.pXgXjXjXjXjXjXhXjXhXhXhXgXgXgXjXjXjXjXjXgXfXyXN.+...| ) d A A A f f d f | ' ' +.          ",
"          c s f d A f f f Z ] +. .B.eXdXgXgXgXgXhXgXhXhXhXgXhXgXgXhXgXgXgXgXgXgXfXaXwXg.o.' | { A A d f f f f _ ' ' '           ",
"        W C i { { { { f Z B +.X.9.8XaXfXsXfXfXfXfXfXsXsXsXsXfXsXaXaXaXfXaXaXaXaXaXaXaX,X<...+.' | &.f { { p { { | ' ' O.        ",
"      C C s f [ { f { &.j =...o.$XpXuXuXuXyXyXyXpXpXpXpXuXpXpXpXpXpXtXpXpXpXpXpXpXpXpXtXXX3.o.o.+.| ) { { f { _ ' ' ..+.        ",
"      G C f { { { { G M e +...#.$XtXpXeXeXeXeXeXeXeXeXtXeXeXeXeXeXeXtXwXtXtXtXtXtXtXtXpX6X7.o.o.#.#.| ) { f { { | +.+.....      ",
"      V D A | [ f { ;.6 1...1.@.Z.3XwXwXrXwXwXwXwXwXwXwXwXwXwXwXwXwXwXwXwXwXwXwXwXwXwXwX6XS.o.o.@.#.1.| { { { { p ' +.+. .      ",
"    ~ V C &.| { &.{ M e +.#.1.#.@.XX2X6X6X5X5X5X8X5X5X5X5X6X5X5X5X5X5X5X5X5X5X5X5X6X7X3XOX7.#.#.#.3.1.1.[ [ &.s a G 1.+.....    ",
"    D s f =._ | =.=.6 t.5.3.3.#.3.s.OX,X,X3X,X7X2X,X,X2X,X,X2X,X,X3X,X,X2X,X,X,X,X,X,X#XZ.2.3.#.3.#.3.3.1.[ f y t D =.#...'     ",
"    C s &.=.' | | w.2 s.7.5.5.3.3.2.s.OX,X:X:X:X:X;X:X:X;X;X;X;X:X:X:X:X:X;X;X;X#X:X#XG.9.3.3.#.2.3.3.3.1.=.s x x n >.+.+.+.    ",
"  C C d >.=.` | | z I 7.7.7.7.7.7.3.3.Z.+X$X$X@X@X$X@X@X$X@X@X@X@X@X$X$X@X@X@X@XOX+XJ.6.9.7.3.3.3.7.7.7.7.*.u m n m G 1... .}   ",
"  C s A >.| ' ' | 2 ( 7.7.s.s.7.7.7.7.9.A.H. XXXXXXXOXOXOXOXOXXXXXOXOXOXOXXXXXXX XG.s.s.9.7.7.7.7.7.7.s.s.5.y c n n C 1.+...o.  ",
"  D C Z 5.=.| ' >.= x.s.s.s.s.7.s.s.s.Z.Z.S.G.H.J. X XXX X X XXXoXXX XXX X X XJ.V.D.Z.Z.Z.s.s.s.s.s.s.s.s.s.G n n n m >.+.....  ",
"  C C %.5.| ' ' >.: b.g.s.g.s.a.s.s.s.g.a.g.S.S.F.G.J.J.J. XH.H.J. XH. XJ.J.G.g.g.g.A.F.S.s.s.s.s.s.s.s.s.g.G n n n y >.+...o.  ",
"c D C w.5.+.' ..Z * V.g.g.g.a.g.g.s.m.N.~.N.n.a.A.A.S.G.G.J.H.J.J.G.B.G.G.F.G.g.V.C.6 ; 4 ^ N.s.a.s.g.g.g.g.;.n n x x r.O. . .  ",
"c C C r.5..... .N : V.m.m.g.S.S.V./ 3 : O # H !./.J.g.G.G.J.J.J.H.J.G.J.H.G.G.0.e l M Y 4 O - Y.m.g.G.m.m.g.w.n n c n u.1.' o.  ",
"D D C y.5.+... .Z @ ~.V.G.V.H.B.e.B -.=.-.j : X K (.N.J.J.J.J.B.J.B.J.J.J.G.s. .....| +.| T - - `.H.G.V.V.V.w.n m c n l.1. ...  ",
"C C C l.3...+.o.%.O `.J.J.J.G.S.7. . ...o.o.>.Y O ; /.J.J.J.J.J.J. XH.J.J.G.<. ... .1.>.V b T . ^  XH.J.J.J.! c m c W u.<.' o.  ",
"u s C l.7.#.o.o.=.@ Y. XJ.J.G.9.X.o...#.o.o.....d O J /. X/. X X X X XJ.J.s.O...o.' ] B n c c 4 - OXH.J.J.J.! b c c W l.1. . .  ",
"u c s y.s.o. .o.+.2 L /. X XJ.9.X.o.o.o.o...o.o.X.w $ ]._.XX X XXX X XV.G.1....._ i y V n c n T X OXJ. X XV.S c S b W k.1.|  .  ",
"u u c y.s.#.X.#.#.t @ |.XX/.J.9.X.o.o.#.o.o...o.o.1.O T.XX XXXXXXXXXXX XV.=.{ f V C C V C c n T H +XoX X Xt.S C D c S b.1.' o.  ",
"u c s u.m.#.o.o.o.>.O K.{.OX X9.o.o.o.o.o.o.o.o.o.#.2 T.OXXXOXXXOXXXXXOX/.G V C C C C D D c T T Y.XXoX XB.R S D n C F B.O.....  ",
"  c C ! J.1.+.#.X.3.5 o =XXXXXA.#.o.o.#.o.o.#.#.X.1.I }.OXOXOXOX$XOXOXOX_.j.F Z A S S F S W W E }.+X X/.y.F C D D s F /.O.....  ",
"  C C G N.%.{ ) ) +.>.: , @X+XXXG.3...#...+.+.#.7.i.[.$X@X@XOX@XOXOX@X@XOX{.j.N ~ F R Q R R ~.@X;XOXOXN.C C C A a p Q  XO.+.+.  ",
"  C C G ~.q.f f &.A i h X K.<X;X@XV.5.=.] ] ] >.h.+X#X#X@X$X@X$X$X$X@X$X@X@XOX(.x.k.k.j.~.XX$X$X@X@X{.Q C C A C f p l.V.+.+.'   ",
"  D C C k.l.A G f f f G q . P.*X;X@XOXOXOXXXOX+X#X#X:X$X@X@X@X$X;X;X@X@X@X;X@X@X{.OXOXOX@X@X#X@X@X~.u.D G f A A s f /.f.X.+.    ",
"    D D j._.Z { f { f A G 4 . L *X>X,X>X>X>X>X<X:X:X:X<X@X;X;X;X;X;X;X;X:X;X;X;X@X@X@X@X#X#X<X@XB.w.A A f f f f A G OX<.o.+.    ",
"    W C D {.l.f { { f A A w.q > , &X>X>X:X>X,X,X<X>X,X1X*X%X%XT.T.&X*X>X>X:X<X;X>X;X>X>X;X:X;XC.R A { f { f f f C b..X ...'     ",
"    W A D Q.(.&.{ { { { { &.f h * X K.-X7X7X,X3X3X,X,X,XU 3 3 ; - @ K 3X,X>X,X,X,X,X>X2X>X].E Q G &.{ { { { _ _ ;.@Xf.+.....    ",
"      D W E }.e.{ { { { { { [ { A 8 @ & I.3X3X3X5X7X7X7XOX$.-.! u.Y P.,X2X3X3X2X2X2X*X'.I M ;.&.=.[ { ) { { { { h.@XO.+.+.      ",
"      C C G W.(.&.) { { { { _ | | { F J 1 4X4X6X5X6X6X4X3XXXh.t.l.Q.5X5X3X6X3X3X5X2X<XU *.| | | ) ) { { | { { >.OXd...+.'       ",
"      S C D Q {.t.=.| { [ | | | | | ) Y =XrX4X6X5X6X6X6X6X3X;X#X>X6XwX8X3X6X6X6X6X6X,Xc.O.' ' ' | | ' | _ { _ b.@XO. .'         ",
"        D C C !.{.| [ =.| | | | | | ;.I wX4X4X6X5X6X6X5XwX6X4X8X6X6XwX6X6X4X6X6X6XrX6X;X*.' ' ' | ` ' _ | ` >.+Xv. . .+.        ",
"        D C C ~ OXB.' [ | ' ' ' ' ' Y %XwXrXeXwXrX6XwXwXwX6XwX5X6XwXwX8XwXwXwXwXwXwXeX5X:.+.' ' ' ' ' ' ' *.@X.X` ' ..          ",
"          c C s q.;Xi.| ' ' ` ..' ' 4 0XwXeXwXeXwXwXwXwXwXwXwXwXeXwXwXwXwXwXeXwXeXwXtX8X5.' ..' ' ' ..' +.B.>Xi.| ..X.          ",
"            C s C x.#X5.'  . .` ..[ # 0XeXeXtXeXwXwXrXrXyXpXtXeXeXeXeXeXeXeXeXeXeXeXyXwXp.' ..' ' ' '  .n.:Xp.| | `             ",
"            n D C V `.@X,. .....' ' O 0XpXeXeXtXeXrXrXL.0XuXuXyXpXpXyXyXiXpXpXeXeXeXeX6X5.+...' ..' +.f.<X^.' ' |               ",
"              A d C S (.$X,.' ' ..' = U.yXeXtXeXeX4X|.$ L.sXuXyXpXuXuXyXU.0XyXyXyXtXtX:X1. .' .... .i.1XB.O.| ' =.              ",
"                p A A V `.>X5. ...o.Y % E.uXuXiXI.$.1.j + qXuXaXpXpXpXeXK + R.uXaXiX6Xg.O. .....+.c.#Xg.O.' O.*.                ",
"                  S d d G W.1XB.6. .+.q @ X # 6 *.+. .<.: < qXsXsXsXyXOX1.8 . X 1 J :.+. . .o.<.J.3Xg.' ' | 4.                  ",
"                    d Z A C j.>XOX4.#.1.5.:.<.X.X.X.X.X.*.> & R.iX0X).<...o.+.N N 1.+...o. .,.+X@X4.| | '  .                    ",
"                      V C f C ! (.1XH.@.X.X.X.X.X.X.o.X. .*.6 O $ r <.X...X.X.#.3.+.....2.oX1X Xe.' |  . .                      ",
"                        Z D G A Z l.@X$Xg.<.<.O.o.o.o.o.o...#.| 3.#.......o.o.X.@.@.,.F.#XoX6.` ' [ *.<.                        ",
"                          D D f p C G k._.@X).f.<...o.o.o.o.#.o.o.........o.O.<.f.XX#XOXd.<.' ' +.[ *.                          ",
"                              A p p f f &.u.~.$X+XOX/.n.a.5.3.2.#.3.5.s.n..X#X#XXXv.h.r.| | | | =.                              ",
"                                f f f f A f p %.0.b.OX@X@X:X:X;X:X:X:X#XOXXXB.r.{ | ` | } | 1.*.                                ",
"                                    Z Z A { f { { { &.N -.q.e.y.t.t.q.-.>.[ | | { [ ' ' *.:.                                    ",
"                                          Z f f f f { ) ] | ) { { [ [ _ _ | { _ { =.-.*.                                        ",
"                                                A { &.d *.*.*.] } } | | ` ` ' ) {                                               ",
"                                                            8.4.<.8.*.                                                          "
};
