/* XPM */
static char *_89e7e0a586940f7c7ac2102b6395bb0I6H57O9nWQIYKnli[] = {
/* columns rows colors chars-per-pixel */
"55 55 222 2 ",
"   c None",
".  c #B6691B",
"X  c #BD711C",
"o  c #B97815",
"O  c #BE7220",
"+  c #C5740F",
"@  c #CA6E15",
"#  c #D26E16",
"$  c #C77D12",
"%  c #C67517",
"&  c #C57C25",
"*  c #C7773A",
"=  c #BE8624",
"-  c #BF8D3E",
";  c #D4800C",
":  c #DF960C",
">  c #C98214",
",  c #D28C16",
"<  c #D6871A",
"1  c #CA9211",
"2  c #DA9515",
"3  c #D39717",
"4  c #E2950E",
"5  c #E29612",
"6  c #E49C12",
"7  c #E99E16",
"8  c #EA9C1B",
"9  c #DBA60C",
"0  c #DCA515",
"q  c #EBA20B",
"w  c #F4AE0E",
"e  c #FEAE0E",
"r  c #E8BA0D",
"t  c #F4B50E",
"y  c #F9B50E",
"u  c #F5BB0C",
"i  c #FBBC0D",
"p  c #FABF06",
"a  c #EBA215",
"s  c #EBAD14",
"d  c #E7A41E",
"f  c #EAAA17",
"g  c #F4AC15",
"h  c #FBAC14",
"j  c #F3A41A",
"k  c #F4AA19",
"l  c #FAAC1A",
"z  c #F0A414",
"x  c #EDB315",
"c  c #E8B819",
"v  c #F6B413",
"b  c #FBB314",
"n  c #F6BA12",
"m  c #FABB12",
"M  c #F5B41C",
"N  c #FAB319",
"B  c #F3BB1C",
"V  c #FABB1A",
"C  c #C88525",
"Z  c #D18420",
"A  c #D49824",
"S  c #CF8C33",
"D  c #D38837",
"F  c #C99131",
"G  c #D59B39",
"H  c #CB9928",
"J  c #E39925",
"K  c #D5A52D",
"L  c #DBB12A",
"P  c #DDAB37",
"I  c #DFB935",
"U  c #E2A829",
"Y  c #F7A927",
"T  c #E6BA2C",
"R  c #E8BD2D",
"E  c #F8B422",
"W  c #FABD23",
"Q  c #F6BE2A",
"!  c #F5BB21",
"~  c #E2A53B",
"^  c #E4B73B",
"/  c #F3BB32",
"(  c #FBC207",
")  c #FCCD05",
"_  c #F5C30D",
"`  c #FBC40B",
"'  c #F6CD0B",
"]  c #FCCB0B",
"[  c #F4C905",
"{  c #F7D304",
"}  c #FBD303",
"|  c #F6DA04",
" . c #FBD903",
".. c #F5D40B",
"X. c #FAD30B",
"o. c #F5DB0D",
"O. c #FAD90B",
"+. c #EDCB15",
"@. c #F5C213",
"#. c #FCC413",
"$. c #F5CB13",
"%. c #FAC911",
"&. c #FBCC14",
"*. c #F4C31C",
"=. c #FAC41B",
"-. c #F5CB1A",
";. c #FACA19",
":. c #EFD21A",
">. c #F5D413",
",. c #FBD213",
"<. c #F6DA14",
"1. c #F9DA14",
"2. c #F4D41B",
"3. c #FBD31A",
"4. c #F5DB1D",
"5. c #F9DB1C",
"6. c #F7E01F",
"7. c #EAC22E",
"8. c #F9C425",
"9. c #F3C926",
"0. c #F3C22B",
"q. c #FBC32B",
"w. c #FACB2B",
"e. c #F7C625",
"r. c #F5D422",
"t. c #FBD424",
"y. c #F7DB24",
"u. c #FADC23",
"i. c #FAD42B",
"p. c #F6DD2C",
"a. c #FADD2B",
"s. c #EDC33B",
"d. c #F4C933",
"f. c #F1C539",
"g. c #F4CC3B",
"h. c #FACD3E",
"j. c #F8C534",
"k. c #F6D434",
"l. c #F9D433",
"z. c #F5DB32",
"x. c #FADD33",
"c. c #FAD33A",
"v. c #F6DB3C",
"b. c #FADC3B",
"n. c #F5E126",
"m. c #F4E22C",
"M. c #F9E12D",
"N. c #F6E232",
"B. c #FAE134",
"V. c #F5E139",
"C. c #FAE13B",
"Z. c #C58144",
"A. c #D18E4F",
"S. c #D1984C",
"D. c #C88D58",
"F. c #E5B04A",
"G. c #E1BC50",
"H. c #DDB26C",
"J. c #D7B664",
"K. c #E0B76B",
"L. c #F9CE45",
"P. c #EDDD4F",
"I. c #F7D444",
"U. c #F9D644",
"Y. c #FADB43",
"T. c #FADC4D",
"R. c #F8D947",
"E. c #E8C45D",
"W. c #ECD25F",
"Q. c #F9D653",
"!. c #FADB53",
"~. c #FADE5C",
"^. c #F5D759",
"/. c #F5E243",
"(. c #FBE342",
"). c #F7E44B",
"_. c #FBE44C",
"`. c #FAE94D",
"'. c #FBE454",
"]. c #F9EA53",
"[. c #FBE55B",
"{. c #FAE95C",
"}. c #F3E95F",
"|. c #EBC761",
" X c #EED86D",
".X c #F7DC68",
"XX c #F4DC7C",
"oX c #F4DA77",
"OX c #F7E761",
"+X c #FBE663",
"@X c #FBE965",
"#X c #FBE56B",
"$X c #FBE969",
"%X c #F7EA6D",
"&X c #F7EB77",
"*X c #FAEA75",
"=X c #F7EA7D",
"-X c #FBEB7D",
";X c #F9E576",
":X c #F5DB8B",
">X c #FAED84",
",X c #FAEE8B",
"<X c #F8E88A",
"1X c #FAF08E",
"2X c #F9F085",
"3X c #FAED93",
"4X c #FCEE9B",
"5X c #F3E09A",
"6X c #FAF091",
"7X c #FCF19D",
"8X c #FEEEAC",
"9X c #FCF2A2",
"0X c #FCF3AC",
"qX c #FDF5B4",
"wX c #FEF3B9",
"eX c #FCF8B7",
"rX c #FDF6C4",
"tX c #FEF7C9",
"yX c #FDF9CA",
"uX c #FEF8C6",
"iX c #FBFAD3",
"pX c #FEF8D8",
/* pixels */
"                                                                                                              ",
"                                                                                                              ",
"                                              V #.#.&.w.                                                      ",
"                                        m #.=.#.#.` ` #.@.%.                                                  ",
"                                  m i i m m #.m N N E V ` ] ] ] &.;.                                          ",
"                              n i #.m g 7 5 4 5 5 5 4 4 6 7 s u ` ] ` $.                                      ",
"                          V p i b 7 J 8 z l l Y l l j h h k 7 8 6 s V ] ) %.                                  ",
"                        V n y q 8 Y l l h h h h h h h h h h h h l j q g &.} '                                 ",
"                    b i n s a k l l l l h b h g h h b l l h h l h h g k d @.] ) ..                            ",
"                  t m b k k l h b h N i m m #.V #.#.u v l h h h h h b g g f v ) )                             ",
"                v i y g b N b v b ( ( ] i.!.;X<X3X=XOXR.-._ n b g y h b v g M u ) } :.                        ",
"              m m b v b b v b ` ] ,.R.,XeXyXiXpXpXiXiXyXqX;Xr.` u y b b h b y x n ) ] $.                      ",
"              b n v v i b b ` X.4.$XqXrXrXrXyXyXtXuXuXuXrXrX0XQ.3.` m y y y y v v ` ] '                       ",
"            y b n n i i t ] X.r.>XqXwXwXeXeXqXqXqXqXqXqXqXwXqX9X~.,.] ` u m i m n n ` ) }                     ",
"          b b i m m i m _ { 4.-X8X0X0X0X0XqXqX0X0X0X0X0X0X0X0X9X7X_.| ) ` i n m i i ( ) ) X.                  ",
"          N y ( ` i i s O...{.7X7X9X4X9X7X9X7X7X7X7X7X7X7X7X7X7X7X,Xp.X.X.] ` ` ( i ` ) ) X.                  ",
"        v b i ` p ` v *.} 5.2X4X3X3X3X3X6X6X6X6X1X1X,X6X1X6X1X6X1X6X*XO. .O.X.` ( ` ( ] X.}                   ",
"        N b ] ` ` =.0 X.X.o.{.>X>X>X>X>X>X>X>X>X>X>X>X>X>X>X2X2X>X>X-X6. .O.1.) ` ` ` p X.X.}                 ",
"        b m ] ` #.s c O.,.O.m.@X*X&X*X&X*X*X*X*X&X*X&X*X*X*X&X&X*X*X_.6.O.O.1.,.` #.b t ;.X.}                 ",
"        y &.] ] ] 3 t.5.1.1.1.B.@X$X$X#X$X$X$X#X$X$X$X@X#X@X#X@X+X].4.1.1.1.1.1.,.i w g V X.} '               ",
"      b n &.] ' %.A 5.5.5.5.1.1.C.].{.{.'.[.{.[.[.{.{.{.{.[.[.'._.M.5.1.1.5.1.5.5.` h j h &.X.)               ",
"      b m &.] ) n L u.u.u.5.5.5.y.N.(.(._._._._._._._.'._._._.(.M.u.6.5.5.5.5.u.u.=.h l h &.| }               ",
"      b *.,.' ) d T u.a.u.u.u.u.y.m.M.M.C.C.(.C.Y.C.C.(.C.C.B.a.a.m.n.u.u.u.u.u.n.t.l l k #.X.}               ",
"    b b =.,.) ) 5 7.a.a.M.a.a.l.f.f.z.m.m.M.B.C.C.V.C.B.C.B.x.k.L A Z K a.M.a.a.a.i.N l z 8.X.}               ",
"    b b w.X.X.} , f.x.x.N.x.R 3 1 $ X ~ R.x.x.C.b.V.C.b.C.B.y.r @.@.n % & b.B.B.x.l.N h l q...} >.            ",
"    h b w.,.} } 2 ^ B.C.V.p... .} O.! % C Y.C.C.C.C.C.C.C.B.O. .X.,.V k # ~ /.C.C.x.l k l q.$.} >.            ",
"    b b w.1. . .s G C.Y.B.1. .|  . .} } > H T.(.(.(.(.(.C.u.{  .[ t l h j X _.C.C.l.N l N j.,.} o.            ",
"    e h w.1. .O.X.X !.(.C.1. . . .}  . .' o Q._._._._.(.x.,.( u y b l h l & '.C.(.8.g N b j...) >.            ",
"    h h w.r. . .O.$ F.!.(.o. . .O. . . .O.3 ^._.'._.'._.Y.V v b b b b l E ~ _.(.b.! N l v k.X.}               ",
"    b b W a.X.O.O.c X [.`.M.O.O.O. .} O.O.^ [.'.'.'.'.'.'.h.B n B N M M / ~.'._.e.v v b t v.O.)               ",
"      b V c.n u i i < D {.[.x.,.X.] ' 3.b.{.[.[.'.[.[.[.[.'.I.0.0.0.d.Y.'.[.[.h.b b m i m Y.} X.              ",
"      b M c.m m m i b + G @X+X'.!.T._.'.}.{.{.[.{.{.{.{.{.+X[.~.!.'.'.[.[.[.U.V m m m y w.x.{ X.              ",
"      b N L.w.i ` i m M @ S #X$X%X#X#X#X@X@X@X#X#X#X#X@X+X+X+X+X[.[.+X+X+Xd.V i i i i b Y.5.} X.              ",
"      E m Q Q.( ` ` ` #.m # & E.#X&X%X%X%X$XW.F = C & E.#X#X#X$X*X#X#XQ.R *.#.( ` ( p =._...)                 ",
"        N E Q.e.` ( ` ` ` ( 7 @ F  X;X;X*X&X@X9.*.W J  X*X*X#X*X*X|.I M #.` ` ( ` ` ] c.x.X.}                 ",
"        v b Q Y.#.] ` ` ] ` ] @.A oX-X;X*X-X=X$Xc.U..X=X*X-X*X-X*XP.+.] ] ] [ ( ` ` &.!.{ X.                  ",
"          V b Q.l.` ] ` ] ] ] @.G.>X-X-X=X-X-X*X-X*X=X-X-X=X-X-X-X&X2.] ) ) ] ) ] ] b.v.} X.                  ",
"          l h ! '.&.) ' ) ) ) U oX>X<X>X>X-X2X2X-X-X2X>X>X>X>X>X>X2Xl.) ) ) ) ) ) k.'.X.}                     ",
"            b y j._.{ ) } ) ) < <X3X,X>X>X>X>X,X2X,X,X2X2X>X,X,X2X,Xx.) ) } ) } 2.[.r.' )                     ",
"              b v L.R...{ } ) > <X1X,X,X,XXXJ.4X6X6X6X3X,X3X,X,X3X1Xx.} } ) ) 2.{.i.) ]                       ",
"              m i N I./.X.} } , K.3X3X,X Xs.. 5X4X6X4X3XJ.H.3X3X,X*X5.} } } 2.].i.' ' ]                       ",
"                n y n L.].2. .n . Z.S.K $.X.3 A.9X4X7X1Xg.+ * K.G.p.X.| } 5.%X3.) { :.                        ",
"                  u v b j.@Xa.O.,.*.>.|  .| O.+ D.:X:Xv.X.O.r 0 ;.X.} ..C.[.2.] ) ..                          ",
"                    b n b ! !.).4.| |  . . .{ X.9 1 r ..}  .| O.O.O.m.].V.$.] X...                            ",
"                      V N i m q._.Y.z.2.O. . . .O.} } } }  .{ 4.z.)._.2.} ] `                                 ",
"                          m p i i e.R.'.'.(.M.r.>.1.1.5.x.(.{._.z.w.&.) ) &.                                  ",
"                            i i m i p @.;.l.R.!.~.[.~.!.Y.l.;.` ] ] ] $.$.                                    ",
"                                  n i i i _ _ ` ` ` #.` ] ` ] ] ` $.$.                                        ",
"                                        i #._ $.$.' ' ] _ [ '                                                 ",
"                                                                                                              ",
"                                                                                                              ",
"                                                                                                              ",
"                                                                                                              ",
"                                                                                                              ",
"                                                                                                              "
};
