/* XPM */
static char *_a671bb5f8484a8bf5e3690b09242507erWNdDokg2rYbk7A[] = {
/* columns rows colors chars-per-pixel */
"64 64 226 2 ",
"   c None",
".  c #020101",
"X  c #0B0400",
"o  c #140B01",
"O  c #1B0C01",
"+  c #110500",
"@  c #1F1715",
"#  c #1F1815",
"$  c #191101",
"%  c #220C00",
"&  c #2C0E01",
"*  c #241401",
"=  c #2C1B01",
"-  c #361404",
";  c #3B1305",
":  c #341C01",
">  c #371805",
",  c #211916",
"<  c #2A1D15",
"1  c #231B18",
"2  c #251A17",
"3  c #382301",
"4  c #2C2117",
"5  c #3A2C19",
"6  c #332618",
"7  c #451605",
"8  c #4B1605",
"9  c #451B02",
"0  c #531B05",
"q  c #581A05",
"w  c #7D0F01",
"e  c #7E1301",
"r  c #7F1901",
"t  c #621D04",
"y  c #482902",
"u  c #552702",
"i  c #4C3101",
"p  c #563501",
"a  c #42341D",
"s  c #493618",
"d  c #553D16",
"f  c #432F17",
"g  c #642204",
"h  c #6C2603",
"j  c #642C01",
"k  c #6C2B03",
"l  c #732B03",
"z  c #7B2D02",
"x  c #712201",
"c  c #643C00",
"v  c #6B3701",
"b  c #743202",
"n  c #7C3302",
"m  c #743B02",
"M  c #7C3C02",
"N  c #493C21",
"B  c #5D4301",
"V  c #564219",
"C  c #6A4901",
"Z  c #794702",
"A  c #715201",
"S  c #7B5501",
"D  c #664814",
"F  c #734B13",
"G  c #765814",
"H  c #5A4924",
"J  c #695726",
"K  c #725F2C",
"L  c #7A672C",
"P  c #821C01",
"I  c #871C01",
"U  c #842401",
"Y  c #8A2300",
"T  c #842C01",
"R  c #8A2B01",
"E  c #932B01",
"W  c #962A01",
"Q  c #843401",
"!  c #8B3301",
"~  c #843B01",
"^  c #8A3C01",
"/  c #933301",
"(  c #9B3201",
")  c #963B01",
"_  c #9C3C01",
"`  c #A03E01",
"'  c #854401",
"]  c #8A4301",
"[  c #874801",
"{  c #934301",
"}  c #9B4501",
"|  c #924902",
" . c #9A4C01",
".. c #8B5901",
"X. c #975501",
"o. c #A14201",
"O. c #A44B01",
"+. c #A94D01",
"@. c #A55B01",
"#. c #AA5B01",
"$. c #A95401",
"%. c #B45D01",
"&. c #8E6807",
"*. c #986702",
"=. c #9C7601",
"-. c #987409",
";. c #876910",
":. c #A56301",
">. c #AD6C01",
",. c #AB6601",
"<. c #B86800",
"1. c #AC7501",
"2. c #A87A02",
"3. c #B47401",
"4. c #BB7601",
"5. c #B57A01",
"6. c #BC7C01",
"7. c #A1791D",
"8. c #8D772E",
"9. c #C37C01",
"0. c #C97C01",
"q. c #C77301",
"w. c #D37A01",
"e. c #C06500",
"r. c #AC8505",
"t. c #BD8301",
"y. c #BD8D01",
"u. c #B48401",
"i. c #BE9301",
"p. c #BA9801",
"a. c #AC8910",
"s. c #988339",
"d. c #A8943F",
"f. c #A98D2B",
"g. c #BAA33A",
"h. c #C38401",
"j. c #CA8401",
"k. c #C58A01",
"l. c #CB8C01",
"z. c #C49301",
"x. c #CB9301",
"c. c #CC9B01",
"v. c #C39A04",
"b. c #D29301",
"n. c #D19C01",
"m. c #D99A01",
"M. c #D0990F",
"N. c #CCA401",
"B. c #D4A401",
"V. c #D6AB01",
"C. c #D9AD01",
"Z. c #D3AB0C",
"A. c #DBA201",
"S. c #DAB401",
"D. c #DCBA01",
"F. c #DCBB0B",
"G. c #D8B40B",
"H. c #CAA41A",
"J. c #D2AC16",
"K. c #D6B313",
"L. c #DBBB13",
"P. c #DCBD1C",
"I. c #DAB41A",
"U. c #E4B503",
"Y. c #E1BD02",
"T. c #E7BD06",
"R. c #E3B617",
"E. c #E1AF00",
"W. c #C09D25",
"Q. c #D7B728",
"!. c #D3B634",
"~. c #D4BA3C",
"^. c #D9BA35",
"/. c #CDAC30",
"(. c #E2BF29",
"). c #DFC118",
"_. c #E4C203",
"`. c #EAC402",
"'. c #E2C20D",
"]. c #EDC50B",
"[. c #ECCA08",
"{. c #E2C413",
"}. c #E3C51A",
"|. c #EECD1D",
" X c #EBC915",
".X c #DDC129",
"XX c #DCC33D",
"oX c #DEC537",
"OX c #E2C622",
"+X c #E4CA2B",
"@X c #E6CA28",
"#X c #EED12E",
"$X c #E4CB34",
"%X c #E3CC3B",
"&X c #E0C73A",
"*X c #EBD13A",
"=X c #AF9C42",
"-X c #BEAA49",
";X c #CAB34A",
":X c #D5BD44",
">X c #D3BA4A",
",X c #D3BC54",
"<X c #CCBB50",
"1X c #DBC345",
"2X c #DBC44A",
"3X c #DEC94A",
"4X c #D7C04B",
"5X c #DAC552",
"6X c #DCC954",
"7X c #DDCC5C",
"8X c #D7C357",
"9X c #E1CC45",
"0X c #E5D143",
"qX c #EBD543",
"wX c #E6D34B",
"eX c #ECD64B",
"rX c #E1CC52",
"tX c #E5D453",
"yX c #EAD954",
"uX c #E4D45C",
"iX c #E9DB5C",
"pX c #E7D854",
"aX c #DECE61",
"sX c #E2D463",
"dX c #E6D964",
"fX c #EADD64",
/* pixels */
"                                                                  # @                                                           ",
"                                                                  @ @ @ @ @                                                     ",
"                                                            # # @ @ @ @ @ @ @                                                   ",
"                                                        # # # # 1 5 H 1 @ @ @ @                                                 ",
"                                                    # # # 4 H L =X;X>X4 @ @ @ @ @                                               ",
"                                                  # # , J -XsXfXdXuX;X, , @ @ @ @ @                                             ",
"                                                # # 5 d.dXfXfXdXsXaX=X@ @ @ @ 1 # @ @                                           ",
"                                              # 2 H 4XdXfXfXdXdXsX7X8.# @ @ @ @ @ @ 1 #                                         ",
"                                            # 4 L iXfXdXdXdXdXsXaX8XK 1 @ , @ , @ , @ ,                                         ",
"                                          4 # s.fXfXfXdXdXdXsXsXaX8XH @ , @ , @ , @ , @ @                                       ",
"                                        1 4 J pXfXfXdXiXdXdXsXaXaX,XN @ @ , @ , , 6 1 , @ 1                                     ",
"                                      # 1 L tXiXiXiXsXpXpXuXsXaXaX,XN @ , @ , , < f.a , @ @ 1                                   ",
"                                    4 # J pXiXiXiXpXpXpXpX7X7X7X8X,Xa @ , @ , , J >XK @ @ @ ,                                   ",
"                                  # 1 V XXpXiXpXpXpXwX0X9XtX6X6X8X;Xa , @ , 2 , g.tX=X1 @ , , @                                 ",
"                                # # 5 !.pXpXpXpXpXwX0X0X9X3X6X6X4X;Xf , , @ , 5 eXrX;XN , , @ ,                                 ",
"                                # # f.0XwXpXpXpX0X0X%X9X9X9X6X6X4X/.f , , , , 8.eXrX,XK , , , , 1                               ",
"                              # # V .XqXwXwXwXwX0X%X%XoX9X3X6X6X1X^.N 2 2 @ f ^.eX3X5Xs.2 # # # 1                               ",
"                            2 # 6 H.#X*X*X0XwX%X$XoX$XoXXX3X6X6X1X^.F 2 @ @ 8.*XqX2X4X-X5 2 , 2 @                               ",
"                            2 4 a. X+X#X$X%X*X$X$X$X$XoX%X3X6X7X1XR.7.2 2 s (.*X*X2X4X>XH # 2 # 1 ,                             ",
"                          2 # ;.[. X@X+X+X+X+X+X$XOX$XoXXX3X6X<X,XR.M.6 d H.|.#X%X1X4X:X8.2 # 2 @ 1                             ",
"                          , 6 Y.[.{. XOX@XOXOXOXOXOX.XoXoX3X3X<X1XR.R.M.R. X|.#X&X:X1X:Xf.4 2 , # 1 ,                           ",
"                        2 2 G [.[. X{.}.}.}.}.}.).).OX.XoXXX3X3X^.R.U.R.].].|.#X:X:X:X~.f.6 2 , 1 # 1                           ",
"                        2 # v.`.[.'.{.{.{.{.{.{.).).)..X.X~.XX~.^.R.U.T.].].|.#X~.~.~.!.g.5 # 4 1 1 #                           ",
"                        1 f _.`._.'.'.'.'.'.'.'.'.).P.P..X.X.X!.(.R.U.T.].].@X+X^.~.~.!.H.a # # 1 @ 1 1                         ",
"                      , , -._.Y._._.'.'.'.D.'.'.D.G.).).P.P.P.P.K.U.T.`.[. X}..X!.!.!.!.H.V 1 1 1 # # 1                         ",
"                      1 < S._.Y._._._.'.'.'.D.'.D.'.'.G.L.L.L.G.G.U.`._.'.G.K.Q.Q.Q./.J.Z.D # 1 1 1 1 1                         ",
"                      , D _.Y.Y.S.'._._.S._.'.D.'.D.'.N.F.G.G.D.D.S.S.S.S.G.K.I.Q././.J.Z.G # # 1 1 1 1 1                       ",
"                    1 1 ;.T.Y.Y.'.'.S.'.D.D.D.'.D.'._._.D.G.D.G.S.D.D.S.S.G.G.K.I.I.K.J.Z.;.4 # 1 , 1 1 1                       ",
"                    1 1 a.Y.Y.D.S.'._.D.D.D.D.D.D.D.D.D.D.G.G.D.D.S.S.D.S.S.S.G.G.K.K.Z.Z.-.1 1 1 , 1 1 1                       ",
"                    1 1 v.U.D.D.S.S.S.D.D.D._.S.D.D.D.D.D.D.D.D.D.D.D.D.D.D.D.S.G.Z.Z.Z.V.r.< 1 1 1 1 1 1 1                     ",
"                    1 < C.U.S.U.'.D.D.D.D.D.D.D.D.D.D.D.D.D.D.G.S.D.D.S.S.D.D.D.S.G.S.Z.C.B.G 1 # 1 1 1 1 1                     ",
"                  1 1 f U.S.S.S.N._.D.S.S.D.D.D.D.D.D.D.D.D.D.D._.S.S.D.D.D.D.D.S.S.S.V.V.V.c.a 1 1 1 1 1 1                     ",
"                  2 < d U.S.S.S.S.S.S.S.S.S.S.D.S.D.D.D.D.D.S.D.D.D.D.S.'.'.S.D.D.S.S.V.V.V.V.2.1 1 1 1 1 1                     ",
"                  2 < d C.B.r.S.C.S.S.S.S.S.S.S.S.D.D.D.D.D.D.D.D.D.D._.N._.D.D.S.S.S.V.V.V.B.B.D 1 1 1 1 1                     ",
"                  2 1 D E.B.: S v.C.C.S.S.S.S.S.D.S.D.S.D.S.S.S.S.D.S._.D.S.N._.S.C.S.V.p.B.B.A.-.1 1 1 1 1                     ",
"                  2 1 F C.A.3 X C z.V.C.C.S.S.S.S.S.S.D.S.D.S.S.S.S.S.N.S.S._.N.S.S.N.=.A V.B.B.3.1 1 1 1 2                     ",
"                  1 1 F A.B.p . . * 2.B.V.C.S.C.S.S.S.S.S.S.S.S.S.S.C.S.N.S.V.V.N.2.3 . A B.n.n.h.1 1 1 1 1                     ",
"                  < < F A.n.A * @.> X C c.C.V.V.C.C.S.C.C.S.C.S.V.V.C.S.V.V.N.&.= X . X *.n.n.b.l.6 2 2 1 1                     ",
"                  7 8 [ m.n.*.. >.k.y . : =.n.V.V.V.V.V.C.C.V.C.V.V.V.N.N.=.3 . & m > o r.c.x.b.j.s < 2 1 2                     ",
"                  7 8 ' m.n.5.. i N.=.X X X = u.B.B.V.B.B.V.B.B.V.N.i...= . . c t.5.* = k.b.l.l.j.g ; ; > <                     ",
"                  8 8 M b.b.l.. o 1.p.A 5.; . 3 x.B.B.B.B.B.B.B.c.2.$ . % & + p.p.Z X i l.x.l.j.0.u ; ; > >                     ",
"                  8 8 g b.b.b.> . Z N.N.c.p . . *.n.n.n.n.n.B.n.z.i . X >.r.B N.1.: . C k.l.j.j.q.u ; ; - ;                     ",
"                  8 q q 0.l.l.*.. * *.6.X.O . X S x.n.n.n.n.c.x.1.o . X ,.v.p.i.u X X *.k.j.j.0.q.0 ; ; ;                       ",
"                    q q #.l.b.j.c . + & X . X p 5.x.x.x.x.c.x.x.5.p . . ; ..*.m X . c 6.h.j.9.9.#.8 7 7 ;                       ",
"                      t | j.l.k.6.u = = = : C 3.k.l.x.x.x.x.l.x.k.1.p . . X + . . y 3.9.h.9.9.e.^ q 0 8 7                       ",
"                      g n 9.j.j.j.6.>.>.3.5.6.t.k.k.k.l.k.l.k.k.k.t.3.S c p y : p :.6.9.9.9.q.<.k q q 8 8                       ",
"                      h l ,.j.j.j.h.h.h.h.j.j.h.k.k.k.k.k.k.k.k.k.h.t.6.3.3.3.3.5.6.6.9.6.4.<.} g g t 0 0                       ",
"                        z Q :.l.k.k.k.h.h.h.h.h.h.h.j.h.h.j.h.h.h.h.h.t.6.6.6.6.6.6.6.6.4.@.O.n k g g g q                       ",
"                        n Q u t.z.x.k.k.j.h.9.h.h.h.h.h.h.h.h.k.9.t.h.6.t.t.6.u.6.6.6.6...: g l k k h g                         ",
"                        ~ ~ g : t.v.x.k.9.3.,.6.6.h.h.t.t.k.t.t.t.t.6.6.6.t.t.t.t.t.6.v X 0 z l l l k k                         ",
"                        ~ ^ ] % * 2.k.3.' > X = ..t.t.k.y.i.z.t.5.Z y C 5.t.y.y.i.2.3 . - z z z n b l k                         ",
"                          ] ] k . o : % . . . . . = &.i.i.i.2.B $ . . . * Z u.i.C $ . O z z z n n n b b                         ",
"                          { { ] - . . . . . . . = . . 3 A 3 X . . . . . . . O * . . X h z z Q Q n M b                           ",
"                          | | | ^ o . . . . O X.z...* . . X . 3 ..C X . . . . . . . 0 R T Q Q n ~ M M                           ",
"                             . .} n b j u b <.A.N.z.>.u + % Z 5.x.t.X.: . . . . . & T T Q Q n ~ ~ M                             ",
"                             . .} } %.w.w.w.b.t.t.c.k.<.X.@.9.x.v.y.h.#.M v j u 9 h R R ! Q ~ ~ ~ M                             ",
"                               . .} ) O.e.,.:.:.:.>.4.w.0.w.j.5.1.1.1.6.<.<.%.+./ U R ! ! ^ ^ ^ M                               ",
"                                 .} ) ! ( ` } o.o.O.+.$.%.,.@.#.$.$.$.@.#.$.` W I U R ! ^ ^ ^ ] M                               ",
"                                X. .{ / R R W ( _ ` o.o.o.o.o.o.} o._ ` _ / Y I R R ! ^ ^ ] ' Z m                               ",
"                                    } ) E U I P Y Y W W ( ( ( W ( W W Y I r U U R ! ^ ] ] ] ' m                                 ",
"                                     .} ) R Y e e w w w P w w P e e e e P P U T Q ^ ] ] ' ' F                                   ",
"                                      } _ / E Y I e e w w w w w e e r r P U T Q ~ ^ ] ] ' '                                     ",
"                                        } } _ E R Y I P P P e r r P P U z T T ~ ] ] [ [ F                                       ",
"                                                      R R R R R T T T Q Q ^ ^ ] ] [                                             "
};
