/* XPM */
static char *_be4a6cc3a754d6ce15967d49048da52409nGJgUgpFlkfMr[] = {
/* columns rows colors chars-per-pixel */
"64 64 129 2 ",
"   c None",
".  c #A94E2D",
"X  c #AE5936",
"o  c #B35D3A",
"O  c #B6613D",
"+  c #B9633E",
"@  c #B56340",
"#  c #BC6641",
"$  c #BE6942",
"%  c #B0755C",
"&  c #BD7B5F",
"*  c #BC7D62",
"=  c #C26C45",
"-  c #C46E48",
";  c #C67147",
":  c #C87247",
">  c #CE7E47",
",  c #C57149",
"<  c #CA764D",
"1  c #CD794F",
"2  c #D07D4D",
"3  c #C77A55",
"4  c #CE7B51",
"5  c #C37C5B",
"6  c #CB7E5A",
"7  c #D17D53",
"8  c #DFA51C",
"9  c #EDBE0F",
"0  c #E3AC19",
"q  c #D58F2E",
"w  c #DB9D22",
"e  c #D18836",
"r  c #D1843E",
"t  c #EFC30E",
"y  c #F0C20C",
"u  c #FBD605",
"i  c #FCDD05",
"p  c #FEE102",
"a  c #BB8066",
"s  c #B6806B",
"d  c #BC876D",
"f  c #BD8A6F",
"g  c #BA8770",
"h  c #B68974",
"j  c #BB8872",
"k  c #B58E7C",
"l  c #B98E7D",
"z  c #BF907D",
"x  c #CE8242",
"c  c #D08047",
"v  c #CC835D",
"b  c #D68256",
"n  c #D78458",
"m  c #D9865A",
"M  c #D2885E",
"N  c #DB8A5D",
"B  c #C48261",
"V  c #C88563",
"C  c #CF8865",
"Z  c #C5876B",
"A  c #C5896D",
"S  c #CE8F6C",
"D  c #D28964",
"F  c #DE8D60",
"G  c #D28C68",
"H  c #CD9274",
"J  c #C9977E",
"K  c #C7987C",
"L  c #B59283",
"P  c #BC9382",
"I  c #BE9985",
"U  c #B2978D",
"Y  c #B79A8D",
"T  c #BA9C8E",
"R  c #AD9A93",
"E  c #B39D93",
"W  c #BB9D91",
"Q  c #BEA295",
"!  c #B0A29C",
"~  c #BEA598",
"^  c #BCA99F",
"/  c #B5A6A0",
"(  c #B6A8A4",
")  c #BFADA5",
"_  c #BAAFAC",
"`  c #BBB1AF",
"'  c #B3B2B3",
"]  c #BAB3B0",
"[  c #B6B6B9",
"{  c #B9B7B8",
"}  c #BBB8B8",
"|  c #C29782",
" . c #CA9D85",
".. c #C49F8D",
"X. c #C5A18E",
"o. c #CAA38F",
"O. c #C0A396",
"+. c #CAA792",
"@. c #C2A699",
"#. c #C4AA9C",
"$. c #CAAD9E",
"%. c #C7AFA0",
"&. c #C9AFA1",
"*. c #C5B0A6",
"=. c #CAB1A2",
"-. c #C6B1A9",
";. c #C8B6AC",
":. c #D0BBAF",
">. c #C6B9B4",
",. c #C5BFBB",
"<. c #C9BFBA",
"1. c #C4C2BF",
"2. c #CBC2BD",
"3. c #D0C4BD",
"4. c #C7C6C6",
"5. c #CCC7C4",
"6. c #CECECE",
"7. c #D0C6C0",
"8. c #D5C9C4",
"9. c #D7CFCB",
"0. c #D3D0CE",
"q. c #D0CFD0",
"w. c #D4D4D4",
"e. c #D8D7D7",
"r. c #D7D6D8",
"t. c #D8D7D8",
"y. c #DADADA",
"u. c #E3DEDE",
"i. c #E3E3E3",
/* pixels */
"                                                    6.6.6.q.6.6.6.6.6.6.6.                                                      ",
"                                            4.6.q.6.6.6.6.6.6.6.q.6.q.6.6.6.6.6.4.                                              ",
"                                      6.6.6.w.4.6.q.6.6.6.6.6.6.6.6.q.6.6.6.q.q.6.6.6.6.                                        ",
"                                  6.q.6.6.6.w.w.6.6.6.6.6.6.6.6.6.6.6.6.q.6.w.q.6.q.6.6.q.6.                                    ",
"                              6.6.6.6.6.6.6.q.y.6.6.q.6.6.6.6.6.6.6.6.6.6.6.y.q.6.6.6.6.6.6.6.6.                                ",
"                            6.6.6.6.6.6.6.6.6.u.q.6.6.6.6.6.6.6.6.6.6.6.6.6.i.q.6.6.6.6.6.6.6.6.6.                              ",
"                          6.6.6.6.6.6.6.6.6.6.y.y.6.6.6.6.6.6.6.6.6.6.6.6.q.i.6.6.6.6.6.6.6.6.6.6.6.q.                          ",
"                      6.6.6.6.6.6.6.6.6.6.q.6.w.i.w.6.6.q.w.r.r.e.e.w.w.6.e.e.6.6.6.6.6.6.6.6.6.6.6.6.6.                        ",
"                    6.6.6.6.6.6.6.6.6.6.6.6.q.w.i.,.>.;.&...P h I X.$.:.8.9.5.6.6.6.6.6.6.6.6.6.6.6.6.6.6.                      ",
"                  6.6.6.6.6.6.6.q.6.6.6.6.q.y.7.+.D n n n 1 = o > b n b v D K ) 6.6.6.6.6.6.6.6.6.6.6.6.6.6.                    ",
"                4.6.6.6.6.6.6.6.6.6.q.w.r.;.j 3 F n m n n 1 = O : b n b b b n < % #.5.w.6.6.6.6.6.6.6.6.6.w.4.                  ",
"                w.4.6.6.6.6.6.6.6.q.w.<.d $ @ < m n 7 n 7 7 = o < b n b b n n - o 1 C ;.w.w.6.6.6.6.6.6.y.6.6.6.                ",
"              6.0.w.w.6.6.6.4.q.6.q.$.D < = O 1 m n n n n 2 = o < b n n b n b - o < 7 D  .0.w.6.6.6.6.y.r.6.6.6.                ",
"            6.6.6.6.y.i.w.6.6.6.5.J n n < = O < m m n n n 7 = o < b b b n n n ; o < b n n S 2.r.6.w.i.w.6.6.6.6.6.              ",
"            6.6.6.6.6.w.i.w.6.4. .n n n < = # 4 n b b n n 7 = o < b n n b n n ; o < 6 n n n G 9.y.i.t.6.6.6.6.6.6.              ",
"          6.6.6.6.q.6.6.w.i.1.H n n n b < = o 4 n n n n n 7 = o 1 n n n n n n - o < n n n n n G *.q.6.6.6.q.6.6.6.6.            ",
"          6.6.6.6.6.6.6.6.y.o.b n n n n 2 = o 7 n n n n n 7 = o 2 n n n n n n = o < n n n n n n a 1.6.6.6.6.6.6.6.q.            ",
"        6.6.6.6.6.6.6.6.r.2.M n n b n n > $ o 7 n n n n n 7 = o 1 n n n n n n : o < n n n n n n < P 0.6.q.6.6.6.6.6.6.          ",
"        4.w.r.y.i.i.i.i.i.i.X.n n b n n 1 $ + 7 n n n n n 2 = o 1 n n b n n n - X < n n n n b n < k i.i.i.i.i.y.y.r.w.          ",
"        q.6.6.6.6.6.6.6.6.y.=.n n b n n 7 $ o 7 n n n n n b = o 1 n n n n n n = o < n n n n n n ; @.y.6.6.6.6.6.6.q.6.6.        ",
"      6.6.6.6.6.6.6.6.6.6.y.=.n n n n n 7 # o 7 n n n n n 7 = o 1 n 7 n n n n - o < 7 m n n n n ; @.y.6.6.6.4.6.6.6.6.6.        ",
"      6.6.6.6.6.6.6.6.6.6.y.=.n n n n n 7 # o 7 n b n n n 7 $ o 1 n n n n n n - o < n m n n n n , @.y.6.6.6.6.6.6.6.6.6.        ",
"      6.6.6.6.6.6.6.6.6.6.t.%.1 7 4 4 4 < = = < 7 1 4 4 7 4 = $ < 7 7 2 1 4 4 - $ , 7 1 3 7 4 7 , @.y.6.6.6.6.6.6.6.6.6.        ",
"      6.6.6.6.6.6.6.6.6.6.t.*.b Z R A n n n n b n l E v n n b n b n 6 E | 7 n n n n n b L P 7 n n $.y.6.6.6.6.6.6.6.6.6.6.      ",
"      6.6.6.6.6.6.6.q.6.6.r.#.b z ' I b b b b b b / [ Z b n n n n n Z [ ^ 7 n n n n n V _ _ 3 n b #.y.6.6.6.6.6.6.6.6.6.6.      ",
"      6.6.6.6.6.6.6.6.6.6.r.#.4 3 s 5 4 4 7 1 4 4 5 a 4 7 2 4 7 4 7 3 * 5 4 7 3 4 2 2 1 & * 1 < 1 @.r.6.6.6.6.6.6.6.6.6.6.      ",
"      6.6.6.6.6.6.6.6.6.6.r.~ , < < , < < o o - < < < < < < + o = < < < < < < $ X = < < , < < < $ T w.6.6.6.6.6.6.6.6.6.6.      ",
"      6.6.6.6.6.6.6.6.6.6.w.~ n n n n n 7 + + 7 b b b M n n + o 1 n n b b b b - X < b n n n n n , W w.6.6.6.6.6.6.6.6.6.6.      ",
"      6.6.6.6.6.6.6.6.6.6.w.~ n n b n n b + o 7 b b n n n 7 $ o < n n n b n n ; o < n n n b n n < Y 6.6.6.6.q.6.6.6.6.6.6.      ",
"      6.4.6.6.6.w.w.w.w.r.6.X.n n n n b b + + 2 n n n n n n $ + 2 n n n n n n ; X < n n b n n n < k 6.r.w.w.w.w.q.6.6.4.6.      ",
"      6.w.w.w.w.w.y.t.r.r.i.$.n n n n n 7 + + 7 n n n n n b # o 1 n n n n n n - o < n n n n n n < ~ i.t.y.t.y.w.w.w.w.w.6.      ",
"      6.6.6.6.6.6.6.6.6.6.y.=.n n n n n b + o 7 n n n n n n $ o 1 n n n n n n ; o < n b c r c n < @.y.6.6.6.6.6.6.6.6.6.6.      ",
"      6.6.6.6.6.6.6.6.6.6.y.=.n m m m m 7 o + 7 n n n n b b = o 1 n n n n n n : o < n r y u 9 > < @.y.6.6.6.6.6.6.6.6.6.6.      ",
"      6.6.6.6.6.6.6.6.6.6.e.=.n n m 7 m m = o 7 n n n n b b = o 1 n n n n n n - X < 7 0 i p i q < @.y.6.6.6.6.6.6.6.6.6.6.      ",
"      6.6.6.6.6.6.6.6.6.6.r.%.n n n m 7 7 # o 7 n n n n b b $ o 1 n n n n n n < o < 7 w i p i e < O.t.6.6.6.4.6.6.6.6.6.6.      ",
"      6.6.6.6.6.6.6.6.6.6.e.%.n n n m m 7 + + 7 n n n n n b = o 1 n n n n n n - o 1 n r 0 y 0 1 < ~ w.6.6.6.6.6.6.6.6.6.6.      ",
"      6.6.6.6.6.6.6.6.6.6.r.%.n n n n n 7 + + 7 n n n n n b $ o 2 n n n n n n : o < n n b 2 b n < ~ r.6.6.6.6.6.6.6.6.w.6.      ",
"      6.6.6.6.6.6.6.4.6.6.w.#.n n n n n n + o 7 n n b n n b $ o < n n b n n n - o < n n b b b n < W w.6.6.6.6.6.6.6.6.4.6.      ",
"      6.6.6.6.6.6.6.6.6.6.r.@.n n n n n n + o 7 b n b n n b = o 2 n n n n n n : X < n n b n n n < E w.6.6.6.6.6.6.6.6.6.6.      ",
"      6.6.6.6.6.6.6.6.6.6.q.@.n n n n n 7 + + 2 n n n n n b $ o < n n n n b n ; o > n n b b n n < T w.6.6.6.6.6.q.4.6.6.6.      ",
"      6.q.6.6.6.6.6.6.6.6.6.O.n n n n n 7 + o 7 n n n n n b $ o 2 n n n n n n : X < n n n n n n < Y 6.6.6.6.6.6.6.6.6.6.6.      ",
"      4.6.w.y.y.i.i.i.i.i.i.o.n n n n n n + + 7 n n n n n b = o 1 n n n n n n - o < n n n n n n < k i.i.i.i.i.i.y.y.w.6.6.      ",
"      6.6.6.6.6.6.6.6.6.6.y.=.n n n n n 7 o + 7 n n n n n b $ o 7 7 n n b n m ; o < n n n n n n < @.y.w.6.6.6.6.q.6.6.6.6.      ",
"      6.6.q.6.6.6.6.6.6.6.y.=.6 2 1 2 1 7 = = < 4 2 1 4 7 4 = $ < 7 7 1 7 7 3 ; + < 7 7 7 7 3 7 , @.y.6.6.6.6.6.6.6.6.6.6.      ",
"      6.6.6.6.6.6.6.6.6.6.y.%.6 5 L B 7 7 7 n 7 6 d P 6 b b b b 7 7 6 L j b b 7 7 n 7 6 j j 7 7 b $.y.6.6.6.6.6.6.6.6.6.6.      ",
"      6.6.6.6.6.6.6.6.6.6.t.$.b I ' T n n m m m b ( { A b n b n m m A [ %.7 n n n n n C ] ] < b n $.t.6.6.6.6.6.6.6.6.6.6.      ",
"      6.6.6.6.6.6.6.6.6.6.r.%.b 5 h 3 7 7 7 7 7 b a h 3 7 7 b 2 7 7 6 h * 6 7 7 7 7 7 3 s s 7 7 4 @.t.6.q.6.6.6.6.6.6.q.6.      ",
"      6.6.q.6.6.6.6.6.6.6.r.#., ; , - < < o o - ; , ; , ; ; + o = , - , , , ; $ o = : - ; ; < ; $ ~ r.6.6.6.6.6.6.6.6.6.6.      ",
"      6.6.6.6.6.6.6.6.6.6.w.$.n n b n n b + O 7 n n b b n b $ O 1 n n b n n n ; o < b n b b n n 1 Q w.6.6.6.6.6.6.6.6.6.6.      ",
"      6.6.6.6.6.6.6.6.6.6.r.#.n n 7 n n b + O 7 n n b n n b + O 1 n n b b b n ; o < n n b b n b < Q w.6.6.6.6.6.6.6.6.6.6.      ",
"      6.6.q.6.6.6.6.6.6.6.w.~ m n b n n 7 + + 7 n n b b n b + O 1 n n b b b n ; o < n n b b n n 1 T q.6.6.6.6.6.6.6.6.6.6.      ",
"      6.6.6.6.6.6.6.6.6.6.q.~ n n 7 n n b + o 7 b n b b n b = o 1 n n b b n n ; X < n b b b n n < E q.6.6.6.6.6.6.6.6.6.6.      ",
"      4.4.6.6.6.0.w.w.w.w.6.X.M n 2 n n 7 + o 7 n n b b n b = O 1 b n b b b n ; o < b n b b b n < k 6.w.w.w.q.w.6.6.6.4.4.      ",
"      w.w.w.w.r.r.r.r.y.y.i.$.b 7 2 m n b + + 7 b n b n b b + O 1 n n b b n n ; o < b n b b n n < Q i.y.y.e.e.e.r.w.w.w.w.      ",
"      6.6.6.6.6.6.6.6.6.6.y.*.n n 2 n n b + O 7 b n b b n b $ O > b n b b n n : X < b n b b n n < @.y.6.6.6.6.6.6.6.6.6.6.      ",
"      6.6.6.6.6.6.6.6.6.6.y.$.n n < N n b + O 7 7 n 7 n n b + O < b n b b n n : o < b n b b n n < ~ y.q.6.6.6.6.6.6.6.6.6.      ",
"      6.6.6.6.6.6.6.q.6.6.y.$.m n : N n b + O 2 b n 7 n n b $ o 1 7 n n n n n : o < b n b b n n , @.y.6.q.6.6.6.6.6.6.6.6.      ",
"      6.q.6.6.6.6.6.6.6.6.e.%.m n : N n b + O 7 7 n 2 n n b $ O 7 7 m 7 b n n - o < 7 n 7 b n n 1 ~ y.6.6.6.6.6.6.6.6.w.6.      ",
"      6.6.6.6.q.6.6.6.6.6.e.#.m n : N n b + + 7 7 n 7 n n b $ o 1 7 n b b n n : X < b n b b b n < Q y.6.6.6.q.6.6.6.6.6.6.      ",
"      6.6.6.6.6.6.6.6.q.6.r.~ m n : F n 2 + O 7 1 n 7 n b b $ o 1 7 n 7 b n n ; o < 7 n b b b n < Q y.6.6.6.6.6.6.6.6.6.6.      ",
"      q.6.q.6.6.6.0.6.6.6.r.~ m n = N n b + O 7 2 n 1 n n b $ O 4 7 n 7 b b b ; o < 7 n 4 b n n < Q r.6.q.6.6.6.6.6.6.w.6.      ",
"      6.6.6.6.6.q.6.6.6.6.r.Q m b $ N n 4 + O 4 1 n 1 n n 7 $ o 1 7 n 7 b b 7 ; o < 4 n b b n b 1 T w.6.6.6.6.6.6.6.6.6.6.      ",
"      6.6.6.6.6.6.6.6.6.6.6.R 1 ; . 4 ; $ + @ - + ; + < ; = # O = # < $ = ; = - o = + < $ = ; $ ; Y 6.6.6.6.6.6.6.6.6.6.6.      ",
"      6.6.6.q.6.6.6.6.6.6.6.!                   o                                                 ! 6.6.6.6.6.6.6.6.6.6.6.      "
};
