/* XPM */
static char *_18a9d321a4646b6ef5efe5b5c1bab1ccqSzqDhe75xGza7G[] = {
/* columns rows colors chars-per-pixel */
"64 64 6 1 ",
"  c #070707",
". c #1B1916",
"X c #2E2A25",
"o c #3C3129",
"O c #454135",
"+ c #23201D",
/* pixels */
"                                                                ",
"                                                                ",
"                                                                ",
"                                                                ",
"                                                                ",
"                                                                ",
"                                                                ",
"                                                                ",
"                                                                ",
"                                                                ",
"                                                                ",
"                                                                ",
"                                                                ",
"                                                                ",
"                                                                ",
"                                                                ",
"                                                                ",
"                                                                ",
"                                                                ",
"                                                                ",
"                                                                ",
"                                                                ",
"                                                                ",
"                                                                ",
"                                                                ",
"                                                                ",
"                                                                ",
"                                                                ",
"                                                                ",
"                                                                ",
"                                                                ",
"                                                                ",
"                                                                ",
"                                                                ",
"                                                                ",
"                                                                ",
"                                                                ",
"                                                                ",
"                                                                ",
"                                                                ",
"                                                                ",
"                                                                ",
"                                                                ",
"                                                                ",
"                                                                ",
"                                                                ",
"                                                                ",
"                                                                ",
"                                                                ",
"                                                                ",
"                                                                ",
"                                                                ",
"                                                                ",
"                                                                ",
"                                                                ",
"                                                                ",
"........... ................. .............. ............. .....",
"XXXX....XX. XXXXXXX..XX.XXXXX ...XXXXXXXXXXX XXXX....X..XX XX..X",
"XXXXXXXXXXX XX..XXXXXXXXXXXXX XXXXXXXXXX..XX.XXXXXXXXX.XXX oXXXX",
"XXXXXXXXXXX.O..XXXXXXXXXXXX.o oXXXX..XXXXX.X.oXXXXXXXXXXXo.oXXXX",
"XXXXXXXXXXX.OXXXXXXXXXXXX..Xo.oXXXXXXXXXXXXo.oXXXXXXXXXXXo.OXXXX",
"OOOOOOOOOOO.OOOOOoooooOOOOOOO.OOOOOOOOOOOOOO.OOOOOOOOOOOOO.OOOOO",
"XXXXXXXXXXX.XXXXXXXXXXXXXXXXX.XXXXXXXXXXXXXX.XXXXXXXXXXXXX.XXXXX",
"ooooooooooooooo++ooooooo+oooooooooooooo++ooooooooooooooooooooo++"
};
