/* XPM */
static char *_c421003b26f4705f3877ce1afe2395cIBrSk1qCW7PqC4Zg[] = {
/* columns rows colors chars-per-pixel */
"64 64 4 1 ",
"  c #2A2628",
". c #241F21",
"X c #1D191B",
"o c #322E30",
/* pixels */
"  ....    .       ....       .    ....    .       ....       .  ",
"  .  .   ..       ..XX   .   .    .  .   ..       ..XX   .   .  ",
"...  .o     ..XX  XXXXXX.    XXXXXXXXXo     ....  XXXXXX.    X  ",
"  .  .ooo   XXXXXX XXXXXX..XXXXX  .  XXoo  XXXXX   X .. .    XXX",
"  ........ ..XXXoX...XXXX.XXXXX.  ....XX..XX .XXXXoX...XX oo XX.",
"  X  ..   ..XXXX......X..XXXXXX   XXX..XXXXX..XX.XXX...XX...XXX ",
" oX   .  X.XXXXX..XXX...XXXXXXX  XXXXX.XXXXXX.XX..XX....XX XXo  ",
"ooX    .....XXXX..XXXXXXXXXXXXXXX...XXX...XXXXXXX..XX.XXXXX oo..",
"..XX.   X...XXXXXXXXXXXXXXXXXXXXXXX..X..XXXXXXXXXX....XXXXooo ..",
"   XXXX.X..XXXXXXXXXXXXXXXXXXXXXXXXXXXXX..XXXXXXXXX..XXXXX.    .",
"   XXX..X..XXXXXXXXXXXXXXXXXXXXXXXXXXXXXX..XXXXXXXXX...XXXX     ",
" ooXXX.XX..XXXXXXXXXXXXX...XXXXXXXXXXXXXXXXXXXXXXXXXXXX...XX.  .",
"oo .......XXXXXXXXXXXXX..XXXXXXXXXXXXXXXXXXXXXXXXXXXXXXX..XXX  .",
".. .....XXXXXXXXXXXXXX..XXXXXXXXXXXXXXXXXXXXXXXXXXXXXXXXXXXXXX .",
".. ..XXXXXXXXXXXXXXXXXXXXXXXXXXXXXXXXXXXXXXXXXXXXXXXXXXXXXXXXXX.",
".XXXXXXXXXXXXXXXXXXXXXXXXXXXXXXXXXXXXXXXXXXXXXXXXXXXXXXXXXXXXX .",
".XXXXXXXXXXXXXXXXX.XXXXXXXXXXXXXXXXXXXXXXXXXXXXXXXXXXXXXXXXX  ..",
".XX.XXXXXXXXXXXXXXXXXXXXXXXXXXXXXXXX.XXXXXXXXXXXXXXXXXXXXXXX  ..",
"  XXXXXX.XXXXXXXXXXXXXXXXXXXXXXXXXX.XXXXXXXXXXXXXXXXXXXXXXXX..X.",
"  XXXX.XXXXXXXXXXXXXXXX..XXXXXXXXXXXXXXXXXXXXXXXXXXXXXX.......X.",
"  .XX..XXXXXXXXXXXXXXXXX..XXXXXXXXXXXXXXXXXXXXXXXXXXXXX.XXX... .",
".  .X..XXXXXXXXXXXXXXX...XXXXXXXXXXXXXXXXXXXXXXXXXXXXXXXXXXXX.  ",
".  .X.XXXXXXXXXXXXXXXXXXXXXXXXXXXX.XXXXXXXXXXXXXXXXXXXXXXX...   ",
".. XXXXXX.XXXXXXXXXXXXXXXXXXXXXXXX.XXXXXXX.XXXXXXXXXXXXXXX...oo ",
".  ....X..XXXXXXXXXXXXXXXXXX.XXXXXXXXXXX..  XXXXXXXXXXXXXX..X ..",
"......XX.XXXXXXXXXXXXXXXXXXX.XXXXXXXXXX.... XXXXXXXX.XXXX...X...",
"...X.XXXXXXXXXXXXXXXXXXXXXXXXXXXXXXXXXXXXXXXXXXX..  .XXX...XX  .",
"..X..XXXXXXXXXXXXXXXX   XXXXX..XXXXXXXXXXXXXXXXX....XXXX...X ...",
". X..XXXXXXXXXXXXX.X  ..XXXXXX.XXXXXXXXXXXXXXXXX..XXXXXX.XXX ...",
". X.XXXXXXXXXXXXXX.....XXXXXXXXXXXXXXXXXXXXXXXXXX.XXXXXXXXXX ...",
"  .XXXXXXXXXXXX.XXXXXXXXXXXXXXXXXXXXXXXXXXXXXXXXXXXXXXXXXXXX.   ",
"  .XXXXXXXXXXXX..XXXXXXXXXXXXXXXXXXXXXXXXXXXXXXXXXXXXXXXXXXX.   ",
"  .XXXXXXXXXXXXX.XXXXXXXXXXXXXXXXXXXXXXXXXXXXXXXXXXXXXXX..XX .  ",
"  .XXXXXXXXXXXXX..XXXXXXXXXXXXXXXXXXXXXXXXXXXXXXXXXXXXXX...X .  ",
"...XXXXXXXXXXXXXX..XXXXXXXXXXXXXXXXXXXXXXXXXXX.XXXXXXXXXXX.  X  ",
"  .XXXXXXXXXXXXXXX.XXXXXXXXXXXXXXXXXXXXXXXXXX..XXXXXXXXXXXX. XXX",
"  .XXXXXXXXXXXXXXXX.XXXXXXXXXXXXXXXXXXXXXXXX..XXXXXXXXXXXXX..XX.",
"  XXXXXXXXX .XXXXXXXXXXXXXXXXXXXXXXXXXXXXXXXXXXXXXXXXXXXXXX..XX ",
" oX.XXXXXX  ..XXXXXXXXXXXXXXXXXXXXXXXXXXXXXXXXXXXXXXXXXXXX..Xo  ",
"ooX..XXXXX...XXXXXXXXXXXXXXXXXXXXXXX..XXXXXXXXXXXXXXXX..... oo..",
"..XX...XXX..XXXXXXXXXXXXXXXXXXXXXXXXX.XXXXXXXXXXXXXXXXX...Xoo ..",
"   XXXXXX..XXXXXXXXXXXXXXXXXXXXXXXXXX.XXXXXXXXXXXXXXXXXXXX..   .",
"   .XXXXXXXXXXXXXXXXXXXXXXXXXXXXXXXXX...XXXXXXXXXXXXXXXXXX..    ",
" oo XXXXXXXXXXXXXXXXXXXXXXXXXXXXXXXXXX. XXXXXXXXXXXXXXXXXX...  .",
"oo  XXXXXXXXXXXXXXXXXXXXXXXX X.XXXXXXX.  XXXXXXXXXXXXXXXXXXX.  .",
"..  XXXXXXXXXXXXXXX ..XXXXX  ..XXXXXXX.. .XXXXXXXXXXXXXXXXXX.. .",
".. XXXXXXXXXXXXXXXX.XXXXXXX...XXXXXXXXXXX.XXXXXXXXXXXXXXXXXX.  .",
".XXXXXXXXXXXXXXXXXXXXXXXXXXX.....XXXXXXXXXXXXXXXXXXXXX...XXX.  .",
".XXXXXXXXXXXXXXXXXXXXXXXXXXXXXXXXXXXXXXXXXXXXXXXXXXXXXXXXXXXX ..",
".X XXXXXXXXXXXXXXXXXXXXXXXXXXXXXXXXXXXXXXXXXXXXXXXXXXXXXXXXXX ..",
"   XXXXXXX.XXXXXXXXXXXXXXXXXXXXXXXXXXXXXXXXXXXXXXXXXXX.XXXXXXXX.",
"    XXXXXXX..XXXXXXXXXXXXXXXXXXXXXXXXXXXXXXXXXXXXXXXXX...XXXXXX.",
"  ..XXXXXXXXXXXXXXXXXXXXXXXXXXXXXXXXXXXXX..XXXXXXXXXXXX.....X. .",
".  .XXXXXXXXXXXXXXX.XXXXXXXXXXXXXXXXX.XXX.XXXXXXXXXXXXX.....    ",
".  .XXX...XXXXXXXX..XXXXX.XXXXXXXXXX.XXXXX.  XXXXXXXXXXXXXX.    ",
".. X.XX....XXXXXXX.XXXXX..XXXXXXXXX.XX.XXXX...XXXXXXXXXXXXX ooo ",
".     ....XXXX  XX..XXXXXXXXXXXXXX..XX.XXXXXXXXXXXXXXXXXX.X   ..",
"..X  ...   XXX  XXX..XXXXXXXXXXXX..XXX.XXXXXXXXXXXXXXXXXX..XX...",
"..Xo .      XXX ........XX...  X..Xo  XX  XXXXXXXXXXXXX......  .",
"...oo .  .... XX XXX ... XXXX......ooXX  ..XXXXXXXXXXX..  .  ...",
".   ..    ..    XX.   ..... XXXXXXXXXX    ..XXXXXXXX  .....  ...",
".   ..    ..o   ..       ..  ...XX  ..    ..o   XXX      ..  ...",
"  ..XXooo .. oo .         ...     ..XXooo .. oo .         ...   ",
"  ..XXXX........  ...ooo ....     ..XXXX........  ...ooo ....   "
};
