/* XPM */
static char *_e1d45afb77e4769f37d9a6db0b6baa7RHzpk8K9hh7L2Vo0[] = {
/* columns rows colors chars-per-pixel */
"64 64 85 1 ",
"  c #72751B",
". c #75781E",
"X c #7B7E23",
"o c #7F8226",
"O c #74771D",
"+ c #7D8024",
"@ c #787B21",
"# c #74771C",
"$ c #76791E",
"% c #73761C",
"& c #777A20",
"* c #72771E",
"= c #7C7F24",
"- c #76791F",
"; c #72761C",
": c #75791F",
"> c #7A7D22",
", c #6B711A",
"< c #72761E",
"1 c #74781E",
"2 c #777B21",
"3 c #6C711A",
"4 c #6E731B",
"5 c #74771E",
"6 c #6A6F19",
"7 c #696F18",
"8 c #72761D",
"9 c #6E731C",
"0 c #75781F",
"q c #71751D",
"w c #6E721A",
"e c #6D731B",
"r c #6D7119",
"t c #6A7019",
"y c #777A21",
"u c #74781F",
"i c #72751C",
"p c #71761D",
"a c #6D721B",
"s c #6E731A",
"d c #6F731A",
"f c #6F741C",
"g c #71751C",
"h c #6F741B",
"j c #70741C",
"k c #797C21",
"l c #787B20",
"z c #777A1F",
"x c #71741B",
"c c #6D721A",
"v c #797C22",
"b c #70741B",
"n c #6C721B",
"m c #6C721A",
"M c #7E8125",
"N c #75781D",
"B c #6F731B",
"V c #7C7F23",
"C c #757920",
"Z c #686F19",
"A c #7B7E22",
"S c #70741A",
"D c #7C7E22",
"F c #787A20",
"G c #7B7D21",
"H c #6C7219",
"J c #7E8024",
"K c #6C7218",
"L c #6B7117",
"P c #6B7218",
"I c #7D7F23",
"U c #6C7119",
"Y c #676D18",
"T c #7A7E23",
"R c #71751B",
"E c #6B7118",
"W c #6A7117",
"Q c #71741A",
"! c #6A7017",
"~ c #686F16",
"^ c #666D18",
"/ c #7D8025",
"( c #797D23",
") c #73771E",
"_ c #6A701A",
/* pixels */
"                                                                ",
"                                                                ",
"                                                                ",
"                                                                ",
"                                                                ",
"                                                                ",
"                                                                ",
"                                                                ",
"                                                                ",
"                                                                ",
"                                                                ",
"                                                                ",
"                                                                ",
"                                                                ",
"                                                            ..  ",
"                                                            XoO ",
"                               OO                            +@O",
"                          #$.% &@%                        $OO*@@",
"                          $+=-%;:. O#                     >@@,<<",
"                           12@-34.O:5                      <@@67",
"                          O890@qw.@er                      tq@  ",
"                          Oy*9u. ipas                       t0  ",
"                          dauf,g w6s                            ",
"                           dhjtw                                ",
"                                                                ",
"                                                                ",
"                                                                ",
"                                                                ",
"                                                                ",
"                                                                ",
"                                                                ",
"                                                                ",
"                                                                ",
"           %kl                                                  ",
"           %k+..  Okz                                           ",
"             *@- %@+$                                           ",
"            xca4%-v@                                            ",
"             xrwO@04                                            ",
"                bnmd                                            ",
"                xcd                                             ",
"                                                                ",
"                                                                ",
"                                                                ",
"                   %ll                                          ",
"                   %&Ml                                         ",
"                    N>k.                                        ",
"                    Bf@<4-kVz                                   ",
"                    xcteC@&.#                                   ",
"                     xd8@<c                                     ",
"&&                     O<3b                                     ",
"@%                       x                                      ",
"@                                                               ",
"Z                                                      A%       ",
"S                                lz                   -k% DF&   ",
"                                ll%                G# &Hx&JJ%   ",
"                               .@.                 %D@HS&@JK    ",
"                               .@fr                L-@  &@P-I   ",
"                               UYfTz               RE-% &E-@E   ",
"                                x.@.                RWQ !~&WQ   ",
"                                 U^r                     R      ",
"                                                                ",
"            NoV    $>                                           ",
"             ./@-O>A                                            ",
"          %vo(t)_@<7                                            "
};
