/* XPM */
static char *_8f04628e0f84b249aad5c217a7c9a06bVYbSgOLKXHqCNYT[] = {
/* columns rows colors chars-per-pixel */
"64 64 78 1 ",
"  c None",
". c black",
"X c #070102",
"o c #080102",
"O c #1C0408",
"+ c #21050A",
"@ c #29060C",
"# c #2C070D",
"$ c #32080F",
"% c #390911",
"& c #3A0911",
"* c #3C1219",
"= c #3E3E3E",
"- c #400A13",
"; c #430A14",
": c #440B14",
"> c #450B14",
", c #460B15",
"< c #490B15",
"1 c #480C15",
"2 c #490C16",
"3 c #4B0C16",
"4 c #4D0C17",
"5 c #4E0C17",
"6 c #560D19",
"7 c #580E1A",
"8 c #590E1A",
"9 c #5A0E1A",
"0 c #5E0F1C",
"q c #630F1D",
"w c #63101D",
"e c #67101E",
"r c #6A111F",
"t c #6D1120",
"y c #6E1120",
"u c #6F1121",
"i c #701121",
"p c #751323",
"a c #771223",
"s c #771424",
"d c #781323",
"f c #7A1324",
"g c #7C1425",
"h c #7E1425",
"j c #7F1426",
"k c #4C2229",
"l c #562C33",
"z c #494949",
"x c #801426",
"c c #811426",
"v c #821426",
"b c #831427",
"n c #841527",
"m c #861528",
"M c #841628",
"N c #881629",
"B c #891629",
"V c #881729",
"C c #8A1629",
"Z c #8C162A",
"A c #8D172A",
"S c #8F172B",
"D c #91182C",
"F c #92182C",
"G c #93182C",
"H c #95182D",
"J c #94192D",
"K c #96192D",
"L c #98192E",
"P c #99192E",
"I c #9C1A2F",
"U c #9D1A30",
"Y c #A01B31",
"T c #A11B31",
"R c gray61",
"E c #B6B6B6",
"W c gray86",
"Q c white",
/* pixels */
"                                                                ",
"                                                                ",
"                                                                ",
"                                                                ",
"                                                                ",
"                                                                ",
"                                                                ",
"                        &&&&&&&&&&&&&&                          ",
"                        &&&&&&&&&&&&&&                          ",
"                      &:vMTTTTTTTTTTTT2&                        ",
"                      &-vMTTTTTTTTTTTT2&                        ",
"                    &:djIUTTTT22222222CD2&                      ",
"                    &-vMTTTTTT&&&&&&&&DT2&                      ",
"                  &:djUUTTTJ22oooooooo-2VD2&                    ",
"                  &:vMTTTTTG&&........$&DT2&                    ",
"                  &:vmTTTJ<-oo........oo-2VD2&                  ",
"                  &:vMTTTG&$............$&JT2&                  ",
"                &4aavMTTTG&$............$&GT2&                  ",
"                &4vvvMTTTG&$............$&DT2&                  ",
"                &4vvvvCATG&$..EE......REk&DT2&                  ",
"                &4vvvvvMTJ&$..QQ......WQl&GT2&                  ",
"                &4jd56vmTD&$..QQ......WQl&GT2&                  ",
"                &4va&;vmTD&$..QQ......WQl&GU2&                  ",
"                &4va&;vmTD&$..zz......=z*&vC:&                  ",
"                &6ja&:vMTD&$............$&dv;&                  ",
"                  4<&:vvCCMs@@..........$&dv;&                  ",
"                  &&&:vvvMTD&&..........$&av:&                  ",
"                     ;60vbSCqq++......O+7q77;                   ",
"                      &:vvvjvv&&......$&dv:&                    ",
"                       ;6660vjqq++++++7q77;                     ",
"                        &&&;vvjv&&&&&&dv:&                      ",
"                      &;wqqtjvDJppppppAGrw;&                    ",
"                      &;vjvjvvTTTTTTTTTTmj;&                    ",
"                    &;qrGGGLGGTTTTTTTTTTLGrq;&                  ",
"                    &:vmTTTTUTTTTTTTTTTTTTMb:&                  ",
"                    &:bMTTTTTTTTTTTTTTTTTTMj:&                  ",
"                    &:bMTTTTTTTTTTTTTTTTTTMb:&                  ",
"                    &:SGTTTTTTTTTTTTTTTTTTGS:&                  ",
"                    &<TTTTTTTTTTTTTTTTTTTTTT3&                  ",
"                   ;6qTTTTTTTTTTTTTTTTTTTTTT3&                  ",
"                  &:vMTTTTTTTTTTTTTTTTTTTTTT<&                  ",
"                  &:vMTTTTTTTTTTTTGJTTTTTTTTq7<                 ",
"                  &:vNTTTTTTTTTTTTvvTTTTTTTTmv6&                ",
"                  &:vMTTTTTTTTTTTTjvTTTTTTTTMv<&                ",
"                  &:vmTTTTTTTTTTTTvjTTTTTTTTmv4&                ",
"                  &:vmTTTTTTTTTTPJttPJTTTTLLbj4&                ",
"                  &;vmTTTTTTTTTTvv&&vvUTTTMvvj4&                ",
"                  46vbLLTTLLTTLLvv&&vvGJTTCvvv4&                ",
"                &5jjvvvMTUvMUTbjvv&&vvvvUTMvvv6&                ",
"                &5vvvjvbJPCALLvvtt@@trjjLPbvjv<&                ",
"                &5vvvvvvvMTPvvvv&&..&&avjjvvvv4&                ",
"                &5vjttvjvvLLjvtr@@..&&avvvttjj4&                ",
"                &5vd&;vvvvvvjv&&....&&avjv-&dv4&                ",
"                 5pt&;vvdpvvjv&&....$$tajv5:ip4&                ",
"                  &&&;vp&:vvvv&&......$&avvv:&                  ",
"                   &&;dt&:paaa&&......$&taaa:&                  ",
"                    &&&&  &&&&&&    ..$&&&&&                    ",
"                     &&&  $$$$&&    ..#$&&&&                    ",
"                          ....        ..                        ",
"                          ....        ..                        ",
"                            ..        ..                        ",
"                            ..        ..                        ",
"                            ..        ..                        ",
"                            ..        ..                        "
};
