/* XPM */
static char *d616131b36e8454ea262a390a49dcdf5u1Gy1zjk9uXYq7Sy[] = {
/* columns rows colors chars-per-pixel */
"64 64 159 2 ",
"   c None",
".  c #000000",
"X  c #080202",
"o  c #1C0A09",
"O  c #1E120C",
"+  c #21050A",
"@  c #29060C",
"#  c #2F090E",
"$  c #32080F",
"%  c #3A0911",
"&  c #3C1219",
"*  c #3E3E3E",
"=  c #440B14",
"-  c #4B0C16",
";  c #560D19",
":  c #590E1A",
">  c #4A1417",
",  c #4C1718",
"<  c #4E191B",
"1  c #441115",
"2  c #54171A",
"3  c #521A1B",
"4  c #5A191E",
"5  c #630F1D",
"6  c #64101D",
"7  c #6A111F",
"8  c #611C1F",
"9  c #6D1120",
"0  c #761223",
"q  c #7C1425",
"w  c #4C2229",
"e  c #562C33",
"r  c #622822",
"t  c #6F2D23",
"y  c #7B372B",
"u  c #7C3D2E",
"i  c #77342B",
"p  c #494949",
"a  c #7F4741",
"s  c #811426",
"d  c #861528",
"f  c #8B172A",
"g  c #93182C",
"h  c #99192E",
"j  c #9D1A30",
"k  c #A11B31",
"l  c #843D2D",
"z  c #833C30",
"x  c #87590E",
"c  c #8E660A",
"v  c #B07819",
"b  c #8B4534",
"n  c #974F33",
"m  c #984F31",
"M  c #944F3A",
"N  c #8D5237",
"B  c #9F563B",
"V  c #A94E2D",
"C  c #A65637",
"Z  c #A2563B",
"A  c #A55B3F",
"S  c #AE5C3A",
"D  c #B35E3B",
"F  c #B6613D",
"G  c #B8643E",
"H  c #9F5A41",
"J  c #A55D41",
"K  c #9F6651",
"L  c #926458",
"P  c #AA6144",
"I  c #AF6748",
"U  c #B36545",
"Y  c #BB6540",
"T  c #B46847",
"R  c #BD6943",
"E  c #B36848",
"W  c #BC6D49",
"Q  c #BC714C",
"!  c #BD7757",
"~  c #BD795B",
"^  c #8F6B64",
"/  c #A67463",
"(  c #BF7F61",
")  c #C36D45",
"_  c #C47345",
"`  c #C87247",
"'  c #CE7E47",
"]  c #C3734C",
"[  c #C9764D",
"{  c #CD794F",
"}  c #D07D4C",
"|  c #C47650",
" . c #CE7B51",
".. c #C57D5A",
"X. c #D27E53",
"o. c #C49F08",
"O. c #D5A90E",
"+. c #DCBC06",
"@. c #EDBE0F",
"#. c #D58F2E",
"$. c #D2863A",
"%. c #FBD605",
"&. c #B58E7C",
"*. c #D58256",
"=. c #D78458",
"-. c #D9865A",
";. c #DC8B5E",
":. c #D2885E",
">. c #C38060",
",. c #CE8F6C",
"<. c #DE8D60",
"1. c #D28C68",
"2. c #CD9274",
"3. c #908083",
"4. c gray61",
"5. c #B59081",
"6. c #BF9985",
"7. c #B79A8D",
"8. c #B99C8F",
"9. c #B6968A",
"0. c #B29C95",
"q. c #BB9D91",
"w. c #BEA295",
"e. c #BEA598",
"r. c #B0A29C",
"t. c #B8AFAF",
"y. c #B7ACAA",
"u. c #B6B6B6",
"i. c #BEB7B8",
"p. c #BCB5B6",
"a. c #CA9D85",
"s. c #C49E8D",
"d. c #C8A38F",
"f. c #C0A396",
"g. c #C2A699",
"h. c #C4AA9C",
"j. c #C9AD9E",
"k. c #C7AFA0",
"l. c #C9AFA1",
"z. c #C5B0A6",
"x. c #CAB1A2",
"c. c #C8B7AE",
"v. c #C6BEBC",
"b. c #C8C3BF",
"n. c #D0C4BD",
"m. c #C7C6C6",
"M. c #CECECE",
"N. c #CCC7C4",
"B. c #D4CAC6",
"V. c #D3D0CE",
"C. c #D0CFD0",
"Z. c #D4D4D4",
"A. c #D8D7D7",
"S. c #D7D6D8",
"D. c #D8D7D8",
"F. c #DADADA",
"G. c #E3DEDE",
"H. c #E2E2E2",
"J. c white",
/* pixels */
"                                                    M.M.M.M.M.C.M.M.M.C.M.                                                      ",
"                                            m.M.C.M.M.M.M.M.M.M.M.M.M.M.M.M.M.M.m.                                              ",
"                                      M.M.M.Z.m.M.M.M.M.M.C.M.M.M.C.M.M.M.M.M.C.M.M.M.M.                                        ",
"                                  M.M.M.M.M.Z.Z.M.C.M.M.M.M.M.M.M.M.M.M.M.M.Z.Z.M.M.M.M.C.M.                                    ",
"                              M.M.M.M.M.M.M.C.F.M.M.M.M.M.M.C.M.M.M.M.M.M.M.G.M.M.M.M.M.M.M.M.M.                                ",
"                            M.M.M.M.M.M.C.M.C.G.C.M.M.M.M.C.M.M.M.M.M.C.M.M.H.M.M.M.M.M.M.M.M.M.M.                              ",
"                          M.M.M.M.M.M.M.M.M.M.F.F.M.C.M.M.M.M.M.C.M.M.M.C.C.F.M.M.M.M.M.M.M.M.M.M.M.M.                          ",
"                      M.M.M.M.M.M.M.M.M.M.M.M.p.% % % % % % % % % % % % % % v.M.M.M.M.M.M.M.M.M.M.C.M.M.                        ",
"                    M.M.M.M.M.M.M.M.M.M.M.M.V.p.% % % % % % % % % % % % % % u.M.M.M.M.M.M.M.M.M.M.M.M.M.M.                      ",
"                  M.M.M.M.M.M.M.M.M.M.M.M.p.% = s d k k k k k k j j k k k k - % t.M.M.M.M.M.M.M.M.M.M.M.M.M.                    ",
"                m.M.M.M.M.M.M.M.M.M.V.Z.A.0.% = s d k k k k j k k k k k j k - % K h.N.Z.M.M.M.M.M.M.M.M.M.Z.m.                  ",
"                Z.m.M.M.M.M.M.M.M.M.S.y.< 2 0 0 h j k k k k - - - - = > - - d g 2 < ~ c.D.C.M.M.M.M.M.M.F.M.M.M.                ",
"              M.M.D.Z.M.M.M.m.C.M.Z.j.! % = s d k k k k k k % % % % % % % % g k - % Q :.d.V.Z.C.M.M.M.F.S.M.M.M.                ",
"            M.M.M.M.D.G.Z.M.M.M.N./ < 3 0 q j j k k k h = - X X X X X X X X % - d g 4 < [ ,.n.S.M.Z.H.S.M.M.M.M.M.              ",
"            M.M.M.M.M.S.H.Z.M.m.a.P % = s d k k k j k g % % . . . . . . . . $ % g k - % ] -.,.B.F.H.S.M.M.M.M.M.M.              ",
"          M.C.M.M.M.M.M.Z.H.b.2.=.P % = s d k k k h - % X X . . . . . . . . X X % - f g 3 3 U 1.z.M.M.M.M.M.C.M.M.M.            ",
"          M.M.M.M.M.M.M.M.F.d.=.=.P % = s d k k k g % $ . . . . . . . . . . . . $ % g k - % P X.&.b.B.M.M.M.M.M.M.M.            ",
"        M.M.M.M.M.M.M.M.A.b.:.U 3 4 0 0 s d k k k g % $ . . . . . . . . . . . . $ % g k - % P -.` &.V.M.M.M.M.C.M.M.M.          ",
"        M.Z.A.F.G.H.H.H.H.H.d.P % - s s s d k k k g % $ . . . . . . . . . . . . $ % g j - % P -.` &.H.H.H.H.G.F.F.A.C.          ",
"        M.M.M.M.M.M.M.M.C.F.x.P % - s s s s d g j g % $ . . u.u.. . . . . . 4.u.w % g k - % J =.` g.F.M.M.M.M.M.C.M.M.M.        ",
"      M.M.M.M.M.M.M.M.M.M.F.x.P % - s s s s s d k g % $ . . J.J.. . . . . . F.J.e % g k - % J -.[ g.F.M.M.M.M.M.M.M.M.M.        ",
"      M.M.M.M.M.M.M.M.M.M.D.x.P % - s q - : s d k g % $ . . J.J.. . . . . . F.J.e % g k = % P -.` g.F.M.M.M.M.M.M.M.M.M.        ",
"      M.M.M.M.M.M.M.M.M.M.F.h.A % - s 0 % = s d k g % $ . . J.J.. . . . . . F.J.e % g j - % J  .[ g.F.M.M.M.M.M.M.M.M.M.        ",
"      M.M.M.M.M.M.M.M.M.M.D.z.P % ; s 0 % = s d k g % $ . . p p . . . . . . * p & % q f = % J =.*.h.D.M.M.M.M.M.M.M.M.M.M.      ",
"      M.M.M.M.M.M.M.M.M.M.S.h.P % % q 0 % = s s k g % $ . . . . . . . . . . . . $ % 0 s = % J *.*.h.A.M.M.M.M.M.M.M.M.M.M.      ",
"      M.M.M.M.M.M.M.M.M.M.S.h.] Z H - - % = s s f f d 0 @ @ . . . . . . . . . . $ % 0 s = % Z { { g.A.M.M.M.M.M.M.M.M.M.M.      ",
"      M.M.M.M.M.M.M.M.M.M.Z.e.[ ] H % % % = s d s d k g % % . . . . . . . . . . $ % 0 s = % Z [ R 8.Z.M.M.M.M.M.M.M.M.M.M.      ",
"      M.M.M.M.M.M.M.M.M.M.Z.e.=.X.] M M M y : : s s g d 5 5 + + . . . . . . o + : 5 : : b M [ =.[ 8.Z.M.M.M.M.M.M.M.M.M.M.      ",
"      Z.M.M.M.M.M.M.M.M.M.C.e.=.X.-.X.-.X.S % - s s s s s s % % . . . . . . $ % 0 s = % ] =.*.*.[ 7.M.M.M.M.M.M.M.M.M.M.M.      ",
"      m.m.M.C.M.Z.S.Z.Z.Z.Z.s.=.-.X.-.-.X.D l z : : : : s s 5 5 + + + o + + : 5 : 2 b M  .=.*.*.[ &.M.S.Z.S.Z.Z.C.M.M.m.M.      ",
"      M.Z.Z.Z.Z.Z.A.A.A.D.H.k.=.-.X.-.X.X.Y D W % % % = s s s s % % % % % % 0 s = % | =.=.=.*.*.[ f.H.A.A.A.S.S.S.Z.Z.Z.M.      ",
"      M.M.M.M.M.M.M.M.M.M.F.x.=.-.-.-.-.X.Y t y 5 5 5 5 s s g g 0 0 0 0 0 0 g g 7 6 y u _ $.*.=.[ g.F.M.M.M.M.M.M.M.M.M.M.      ",
"      M.M.M.M.M.M.M.M.M.M.F.x.=.=.-.=.=.*.C % = s s s s s s k k k k k k k k k k d s = % O.%.%.[ ] f.F.M.M.M.M.M.M.M.M.M.M.      ",
"      M.M.M.M.M.M.M.M.M.M.F.x.=.=.=.=.[ u t 6 7 g g g g g g k k k k k k k k k k g h 7 6 x c +.#.[ e.F.M.M.M.M.M.M.M.M.M.M.      ",
"      M.M.M.M.M.M.M.M.M.M.A.x.=.=.=.-.] % = s d k k k k k k k k k k k k k k k k k k d s = % o.$.[ f.D.M.M.M.M.M.M.M.M.M.M.      ",
"      M.M.M.M.M.M.M.M.M.M.A.k.=.=.=.*.] % = s d k k k k k k k k k k k k k k k k k k d s = % v { [ w.S.M.M.M.M.M.M.M.M.m.M.      ",
"      M.M.M.M.M.M.M.M.M.M.A.h.=.=.-.*.] % = s s k k k k k k k k k k k k k k k k k k d s = % A =.| w.S.M.M.M.M.M.M.M.M.M.M.      ",
"      M.M.M.M.M.M.M.M.m.M.A.h.=.*.-.=.] % = g g k k k k k k k k k k k k k k k k k k g f = % P =.[ w.Z.M.M.M.M.M.M.M.M.M.M.      ",
"      M.M.M.M.M.M.M.M.M.M.Z.g.=.=.=.=.] % = k k k k k k k k k k k k k k k k k k k k k k - % P =.[ q.Z.M.M.M.M.M.M.M.M.M.M.      ",
"      M.M.M.M.M.M.M.M.M.M.C.g.=.=.| M b : 6 k k k k k k k k k k k k k k k k k k k k k k - % P =.[ 8.Z.M.M.M.m.M.C.m.M.M.M.      ",
"      M.C.M.M.M.M.M.M.C.M.M.e.=.=.P % = q d k k k k k k k k k k k k k k k k k k k k k k - % P =.[ 9.M.M.M.M.M.Z.M.M.M.M.M.      ",
"      m.M.Z.F.F.G.H.H.H.H.H.d.=.=.P % = s d k k k k k k k k k k k k g g k k k k k k k k 6 : z M T &.H.H.H.H.H.F.F.F.S.M.M.      ",
"      M.M.C.M.M.M.V.M.M.M.F.x.:.=.P % = s d k k k k k k k k k k k k s s k k k k k k k k s s - % Z g.F.Z.M.M.M.M.M.M.M.M.M.      ",
"      M.M.M.M.M.M.M.M.M.M.F.x. . .Z % = s d k k k k k k k k k k k k s s k k k k k k k k f s - % Z h.F.M.M.M.M.M.M.M.M.M.M.      ",
"      M.M.M.M.M.M.M.M.M.M.F.z.*.>.^ % = s d k k k k k k k k k k k k s s k k k k k k j k d s - % J j.F.M.M.M.M.M.M.Z.M.M.M.      ",
"      M.M.M.M.M.M.M.M.M.M.F.h.*.s.3.% = s d k k k k k k k k k k h h 9 9 h h k k k k h h d s ; % P j.F.M.M.M.M.M.M.M.M.M.M.      ",
"      M.M.M.M.M.M.M.M.M.M.S.k.X...L % = s d k k k k k k k k k k q s % % s s h j k k d s s s - % Z h.A.M.M.M.M.M.M.M.M.M.M.      ",
"      M.M.C.M.M.M.M.M.M.M.S.g.Y B l - ; s s h j k k h h k k h h s s % % s s h h k k d s s s - % n w.A.M.M.M.M.M.M.M.M.M.M.      ",
"      M.M.M.M.M.M.M.M.M.M.S.h.P % - s s s s s s k h s d h k s s s s % % s s s s j k d s s s - % Z w.S.M.M.M.M.M.M.M.M.M.M.      ",
"      M.M.M.M.M.M.M.M.M.M.S.g.P = - s s s s s s h h f f h h s s 9 9 @ @ 9 9 s s g g d s s s - % Z w.Z.M.M.M.M.M.M.M.M.M.M.      ",
"      M.M.M.M.M.M.M.M.M.M.Z.g.P % - s s s s s s s d k h s s s s % % . . % % 0 s s s d s s s ; % B 8.Z.M.M.M.M.M.M.M.M.M.M.      ",
"      M.M.M.M.M.M.M.M.M.M.C.e.P % - s s 7 0 s s s s h h s s 0 7 @ @ . . % % 0 s s s 9 9 q s - % B 7.M.M.M.M.M.M.M.M.M.M.M.      ",
"      m.m.M.M.M.V.Z.Z.Z.Z.M.d.Q & > s 0 % = s s s s s s s s % % . . . . % % 0 s s s = % 0 s - % Z 5.M.Z.Z.Z.Z.C.M.M.M.m.m.      ",
"      Z.Z.Z.S.S.A.A.A.F.F.H.h.=.I 9 0 7 % = s s 0 0 s s s s % % . . . . $ $ 9 0 s s - = 0 0 4 3 A e.H.F.F.A.A.A.S.Z.Z.Z.Z.      ",
"      M.M.M.M.M.M.M.M.M.M.F.x.=.=.Y , % % = q 0 % = s s s s % % . . . . . . % % 0 s s s = % P *.[ g.F.M.M.M.M.M.M.M.M.M.M.      ",
"      M.M.M.M.M.M.M.M.M.M.F.z.=.*.[ I 3 % = 0 0 2 4 0 0 0 0 % % O O O O . . $ % 9 0 0 0 3 3 U -.[ g.F.M.M.M.M.M.M.M.M.M.M.      ",
"      M.M.M.M.M.M.M.M.M.C.F.k.=.=.` ;.[ 1 % % 3 *.Q % % % % % % { *.*.X.X . $ % % % % % ) *.-.*.[ g.F.M.M.M.M.M.M.M.M.M.M.      ",
"      M.C.M.M.M.M.M.M.M.M.F.h.=.*.` ;.=.T < > r X.] $ $ $ $ , > { X.-.*.O O $ $ > , 3 3 Q *.*.-.[ w.F.M.M.M.M.M.M.M.M.Z.M.      ",
"      M.M.M.M.C.M.C.M.M.M.A.h.:.=.` ;.=.*.F F X.X.Q . . X . R D { *.=.X.*.=.O . n { X.=.*.*.=.*.[ w.F.M.M.M.M.M.M.M.M.M.M.      ",
"      M.M.M.M.M.M.M.M.M.M.S.h.-.=.` ;.=.*.G F }  .Q O O . . R F { X.=.X.*.=.O . n [ X.=.X.*.=.-.[ w.F.M.M.M.M.M.M.M.M.M.M.      ",
"      C.M.C.M.M.M.M.M.M.M.S.e.-.=.) ;.=.*.G F X.{ =.} Q . . R D { X.-.X.=.=.O . n { X.=.X.*.=.=.[ w.S.M.M.Z.M.M.M.M.M.Z.M.      ",
"      M.M.M.M.M.M.M.M.M.M.Z.w.-.*.Y ;.=.X.G F X.[ =.[ Q . . R D [ X.-.X.*.=.O . n [ X.*.X.*.=.X.[ q.Z.M.M.M.M.M.M.M.M.M.M.      ",
"      M.M.M.M.M.M.M.M.M.M.Z.7.[ ` V X.) R F U ) G [ Y P . . Y F ) Y [ R _ ` O . m ) Y [ R ) ` R _ 7.Z.M.M.M.M.M.M.M.M.M.M.      ",
"      M.M.M.C.M.M.M.M.M.M.M.r.                  S     N . .                 X .                   0.M.M.M.M.M.M.M.M.M.M.M.      "
};
