/* XPM */
static char *bfec06b2487346b4f3ca5d257020e7d6rFE3YgrbHFalotfi[] = {
/* columns rows colors chars-per-pixel */
"64 64 18 1 ",
"  c #181817",
". c #211F1D",
"X c #141413",
"o c #090909",
"O c #382B2F",
"+ c #28221F",
"@ c #1C1C1B",
"# c #2B2A27",
"$ c #232320",
"% c #332E28",
"& c #1D1E1B",
"* c gray5",
"= c #242320",
"- c #3C322C",
"; c #564144",
": c #332A26",
"> c #1D1E1D",
", c #292623",
/* pixels */
" ..       . X     o   .  o  .    ..       . X     X   .  o  .   ",
".OOOO++++.+..+++.O+++O+.+O.OO+O+.OOOO++++.+..+++.O+++O+.+OXO++O+",
" O@+X@@@+@+X@@@@@.@X@+@+X+@@@.+o O@+X@@@+@+X@@@@@.@X@+@+X+@@@.+o",
" ++ @@+X@+@@@@@@@@@@+@+ +.@ X@@o ++ @@+X@+@@@@@@@@@@+@+ +.@ X@@o",
" O@@@@+@@@X@@+@@@+@ @@@@@X@@+@Xo +@@@@+@@@X@@+@@@+@ @@@@@X@@+@Xo",
" +@X.+@@@+@@@@@X.@@@@+X@+@@@@+@o +@X.+@@@+@@@@@X.@@@@+X@+@@@@+@o",
" +  +@@@+@.@@@+@@.@@@@+ @@@@+@.X +  +@@@+@.@@@+@@.@@@@+ @@@@+@.X",
"X+@+@.X+@+@@X+@+@@@ @+@@@@@+@@@oX+@+@.X+@+@@X+@+@@@ @+@@@@@+@@@o",
" +.@+@@@ @@.+@ @@@@@++.@@X+ .@@o +.@+@@@ @@.+@ @@@@@++.@@X+ .@@o",
" O@.@@@.@@@+++@X @@+X+@@@@@+@@@X +@.@@@.@@@+++@X @@+X+@@@@@+@@@X",
"X++X.@@@ @@@+@@@@@.@++@@ @+.@X+XX++X.@@@ @@@+@@@@@.@++@@ @+.@X+o",
" OX+@@@@X@@+X+ @@ @+@@@@@+@.@@ o OX+@@@@X@@+X+ @@ @+@@@@@+@.@@ o",
".+@@@@@@@@+.+.@@@@@+@@.X@+@@@@@o.+@@@@@@@@+.+.@@@@@+@@.X@+@@@@@o",
" +X@@@ @@+ ++@X+@@@@@@@@@@@##$@o +X$## @@+ ++@X+@@@@@@@@@@@@@@@X",
" + @@@X@+@X@@@@.@+@@@ @@@ ###%+o + ###&@+@X@@@@.@+@@@ @@@ @@@.+o",
"ooXoXoXoooooooXoooooXooXX*&***oooXX*&*&*ooooXoXoXoooXooooooooXoo",
"  . X     o   .  o  .   =%%===    .=&==== X   .  o  .    ..     ",
"+.+..+++.O+++O+. O.OO+O---;;;-+++.+%%---%;+++O+.+OXO++O+++OOO+++",
"@ @X @@@ +@@@.@o O@+@@-###---#@@@ @&=###=-#@@.@X O@+@@+@@@+++@@@",
"+@+@X+@X+@@@+@@o ++++###=##-#&@@+@+#&-#&-###+@@o ++++@@@ @@+@X@@",
" @.@@@@+.@@+@@.o O@+#-###=-##=@. @.####-%##-#@.o O@+@+@@@ +@@ @.",
"@@@X@@+@+@.@@@@o.++&#####-=&-#@@@@@&##-#-#%###@o.++X@@@@@+ X+@@@",
" @+@ +@+++@@X@@o .###%#&####-%@@ @+#=-#---##&##X .@@@.@X@@@@+.@@",
"@@@@.@+.X@@+@ +X -######-##-#$@.@@@$%#-%&##-#=-& +@@@@@@+@@+@@@.",
"@@@++X@++@@@@@@o=-#&####-#-#-X+@@@@+-&#--######*=+@X@@@@+@+@+X+@",
"@+@@+@@@@.@@@+@*=--##%#-=%#-++ @@+@@+####%###-#*=-+@@.@+ .@+++ @",
"@X@+@@@.@@@.@@#*=-&-##-#-%-X+@@@@X@+@@#%###%###*=-&+@@+@+.+X+@@@",
"@@ X+@@@X@@ @#-*=-###&=-#-@+@@@.@@ X+@@#&##=##-&=-##@X +@+@+@@@.",
"@@@@@+@+@@X+@%#*=-####&##@ @@X#####@@+@+##&-#%#*=-##@@X@@@ @@X@@",
"@@X@+@+@@++@+$#&&-##%-#:@+@@+#%###&#+@+@@:-#-##&*-#$.+@+@+@@+@.@",
"@.@@@X@@@@@.@@@o ++X@.@@ .@@#####%###X@@@@@.@@@o ++X@.@@ .@@@@@@",
"ooooXoXoXoooXooooooooXooooXo&*&******oXoooooXooXXoXooooooXXoXoXo",
"  X   .  o  .    ..       . &=====*== .  o  .    ..       . X   ",
".O+++O+.+OXO++O+++OOO++++.+.%---%;---O+.+O.OO+O+++OOO++++.+..+++",
" O@+X@@@+@+X@@@@@.@X@+@+X+@@#%-*=;#-&@@@+@+X@@@@@.@X@+@+X+@@@.+o",
" ++ @@+X@+@@@$######-#->+.@ X##*=--=@@+X@:#########$+@+ +.@ X@@o",
" O@@@@+@@@X@@-###-#=#####X@@+@&*=-#@@@+@##&##-###-#=@@@@@X@@+@Xo",
" +@X.+@@@+@@@##&%####-&#-#@@@+@o +@X.+@##-#####&%###@+X@+@@@@+@o",
" +  +@@@+@.@@@-##%####-=###@+@.X +  +@##-#%###-##%#@@@+ @@@@+@.X",
"X+@+@.X+@+@@X+@-###=#-#####-@@@oX+@+@%&-#-##&-#-##@ @+@@@@@+@@@o",
" +.@+@@@ @@.+@ @####--%##&-=%@@o +.@-###=##%-#=##@@@++.@@X+ .@@o",
" O@.@@@.@@@+++@X ##-&-#####-#$@X +@,###%###---#& @@+X+@@@@@+@@@X",
"X++X.@@@ @@@+@@@@@%#--##=#-%#&+XX++&%###=###-##@@@.@++@@ @+.@X+o",
" OX+@@@@X@@+X+ @@ @-#####-#%## o OX-####&##-&- @@ @+@@@@@+@.@@ o",
".+@@@@@@@@+.+.@@@@@+##%&#-####@o.+@#######-%-.@@@@@+@@.X@+@@@@@o",
" +X@@@ @@+ ++@X+@@@@@#########@o +X###=##-=-+@X+@@@@@@@@@@@@@@@X",
" + @@@X@+@X@@@@.@+@@@ ###=###%+o + ###&#-#&@@@@.@+@@@ @@@ @@@.+o",
"ooooXooXXoXooooooXXoXoX*****&*XoXoo*&*****oooXooooXoXoXoooooooXo",
" o  .    ..       . X   ==&===.  o =%====..       . X     o   . ",
"+O.OO+O+++OOO++. O+..+++.;---;+.+OX;--;-++OOO++.+O+..+++.O+++O+.",
"@ @X @@@ +@@@.@o OX+@@+@@@---#@@@ @&=##@ +@@@.@X OX+@@+@@@+++@@@",
"+@+@X+@X+@@@+@@o ++++@@@ @@-# @@+@+$&-@X+@@@+@@o ++++@@@ @@+@X@@",
" @.@@@@+.@@+@@.o O@+@+@@@ +@@ @. @.@@@@+.@@+@@.o O@+@+@@@ +@@ @.",
"@@@X@@+@+@.@@@@o.++X@@@@@+ X+@@@@@@X@@+@+@.@@@@o.++X@@@@@+ X+@@@",
" @+@ +@+++@@X@@o .@@@.@X@@@@+.@@ @+@ +@+++@@X@@X .@@@.@X@@@@+.@@",
"@@@@.@+.X@@+@ +X +@@@@@@+@@+@@@.@@@@.@+.X@@+@ +X +@@@@@@+@@+@@@.",
"@@@++X@++@@@@@@o +@X@@@@+@+@+X+@@@@++X@++@@@@@@o +@X@@@@+@+@+X+@",
"@+@@+@@@@.@@@+@o ++@@.@+ .@+++ @@+@@+@@@@.@@@+@o ++@@.@+ .@+++ @",
"@X@+@@@.@@@.@@@o +X+@@+@+.+X+@@@@X@+@@@.@@@.@@@o +X+@@+@+.+X+@@@",
"@@ X+@@@X@@ @@+o +@@@X +@+@+@@@.@@ X+@@@X@@ @@+X +@@@X +@+@+@@@.",
"@@@@@+@+@@X+@.@o +@@@@X@@@ @@X@@@@@@@+@+@@X+@.@o +@@@@X@@@ @@X@@",
"@@X@+@+@@++@+@@XX+@@.+@+@+@@+@.@@@X@+@+@@++@+@@Xo+@@.+@+@+@@+@.@",
"@.@@@X@@@@@.@@@o ++X@.@@ .@@@@@@@.@@@X@@@@@.@@@o ++X@.@@ .@@@@@@",
"oXXoXoXoooooXoXoXoooXooooooooXooooXoXoXoooooooXoooooXooXXoXooooo"
};
