/* XPM */
static char *_dfc0c7483214605e9905cdf194e008ajcSh1mS4hM6Zr7u9[] = {
/* columns rows colors chars-per-pixel */
"64 64 133 2 ",
"   c gray13",
".  c #2E2D2C",
"X  c #312E2B",
"o  c #36322F",
"O  c #363433",
"+  c #3A3632",
"@  c #3D3935",
"#  c #3C3C3C",
"$  c #413D39",
"%  c #45413D",
"&  c #48443F",
"*  c #434343",
"=  c #4A4641",
"-  c #4E4A45",
";  c #4B4B4B",
":  c #524D47",
">  c #544E48",
",  c #57514B",
"<  c #58524C",
"1  c #545454",
"2  c #5C5650",
"3  c #5F5A54",
"4  c #5C5C5C",
"5  c #625C56",
"6  c #655E58",
"7  c #67635F",
"8  c #6A645D",
"9  c #656565",
"0  c #696561",
"q  c #6E6A64",
"w  c #6C6C6C",
"e  c #716B63",
"r  c #726E69",
"t  c #76726E",
"y  c #78746F",
"u  c #747474",
"i  c #7A7672",
"p  c #7E7A76",
"a  c #7C7C7C",
"s  c #817C76",
"d  c #827E79",
"f  c #86827D",
"g  c #88837E",
"h  c #838383",
"j  c #898480",
"k  c #898580",
"l  c #898581",
"z  c #8A8581",
"x  c #8A8681",
"c  c #8A8682",
"v  c #8B8682",
"b  c #8B8782",
"n  c #8B8783",
"m  c #8C8783",
"M  c #8A8681",
"N  c #8C8883",
"B  c #8D8883",
"V  c #8C8884",
"C  c #8D8884",
"Z  c #8D8984",
"A  c #8D8985",
"S  c #8E8984",
"D  c #8E8985",
"F  c #8D8A85",
"G  c #8F8A86",
"H  c #8F8B86",
"J  c #8F8B87",
"K  c #8D8985",
"L  c #888888",
"P  c #898989",
"I  c gray54",
"U  c #8B8B8B",
"Y  c gray55",
"T  c #8D8D8D",
"R  c #8E8E8E",
"E  c gray56",
"W  c #8B8B8B",
"Q  c #918A83",
"!  c #908B87",
"~  c #908C87",
"^  c #918C87",
"/  c #908C87",
"(  c #908C88",
")  c #918D89",
"_  c #928D88",
"`  c #928D89",
"'  c #928E8A",
"]  c #938F8A",
"[  c #948F8B",
"{  c #938E89",
"}  c #94908A",
"|  c #94908B",
" . c #95908B",
".. c #96918B",
"X. c #95908C",
"o. c #95918C",
"O. c #96928D",
"+. c #98938F",
"@. c #99948F",
"#. c #98948F",
"$. c #909090",
"%. c gray57",
"&. c #929292",
"*. c #939393",
"=. c gray58",
"-. c #959595",
";. c gray59",
":. c #979797",
">. c #939393",
",. c #999490",
"<. c #9A9590",
"1. c #9C9791",
"2. c #9A9691",
"3. c #9D9892",
"4. c #9F9994",
"5. c #989898",
"6. c gray60",
"7. c #9A9A9A",
"8. c #9B9B9B",
"9. c gray61",
"0. c #9D9D9D",
"q. c #9F9F9F",
"w. c #9A9A9A",
"e. c #A29D98",
"r. c #A39F9A",
"t. c #A9A39F",
"y. c #A0A0A0",
"u. c gray63",
"i. c #A2A2A2",
"p. c #A2A2A2",
"a. c #AEA9A4",
"s. c #AAAAAA",
"d. c #AAAAAA",
/* pixels */
"s h v ( n J J v ( ( h [ v @. .t.d.e.1.[ g d d n ( [ g i d g i 0 Q ,.( J J v p d i l f Y i g i f n J d i g g ( | ( n g r g i u 2 ",
"d | %.E E P %.$.$.| a h ;.5.;.s.6.6.$.Y h P h L h L u u u L 4 : J W Y Y :.E P u L h u Y a u a u a h L %.:.;.=.8.5.=.Y h a u ; % ",
"p E h h h h W R $.$.u h E %.;.E R ;.R >.a E h d a a w u a L ; - g h a h P a L a u h h a f u u w u u h L E E %.;.;.P h a a u * % ",
"d U E %.P P R h Y W 9 h %.5.9.%.6.L L R h h $.E P h 9 L a d 1 - d h h E %.h E h h L h u u a h a h L h ;.%.E E ;.8.;.a L a u = $ ",
"g ;.%.L h a h h h u w E E ;.%.E >.R $.W R R ;.R R h a L a L ; $ g R >.Y h ,.>.h a u a a h L a u L L h Y h Y L %.5.P u h u h 1 % ",
"h ;.E a h Y P P h u u L h P h %.>.Y L Y -.R $.h W W u L h h 1 & l =.$.;.$.:.L u 4 u h h L h L a h u u h u h h L U h h h h L 1 # ",
"g ;.R L W ;.>.%.U w Y h a h h %.L h a a Y $.W h W h u h >.u ; & n ;.R W h L a w w h L h a h L u u U h h u h h h h P h h a a ; % ",
"g ' R R Y ;.P h h a h u h a %.P h L W W L h W L >.W a h E w ; * U R h a a h L h u w a h L h u h a P a h a P h h E U P u w h ; @ ",
"l =.R $.R P L h L h u P E h Y a a >.;.W W Y R 6.$.E 9 L u a * $ v P a h L L h a w a L Y L h u a h =.Y L h Y $.=.Y E L h u h ; @ ",
"n >.Y h P E >.;.E P %.9.h h %.P W 0.R a h L -.-.L L h h n w ; $ p P h h Y h a h u h L W L h u u h $.Y 5.$.5.$.h U L P h h u ; % ",
"d a a h L Y >.$.E ;.5.%.w h P a L ;.u L W Y L ;.$.;.W L a 4 ; # q a a a a h a f h h Y L a u 9 w h Y $.=.L $.h L h L Y h u w * % ",
"i u u h Y h $.P P 5.%.a a h h %.;.>.h i.>.Y L R L Y a u 9 w * % i E a w a L w u a h Y h a w 4 h Y =.Y h L $.L Y P U Y a w 9 ; % ",
"i h f a a a h L | Y a a a h P P >.W R ;.$.E h h u h 9 u w 9 # # i h w a h a a a h L h u i a w a L Y Y h L L L L L h L u a u * @ ",
"u a u u h w h h a a a u u h L u a w a a u u h u u u 4 9 9 9 @ + q a a u a u a a a u a u u w 9 u w a u 9 u u w u u a a u 9 4 # @ ",
"y ; * * # # * ; * ; * ; * * * @ = @ * # * * * * * * # O @ .   + 7 ; * * * * * * * * * * # @ # @ * # * O * # @ * = * * # O O . $ ",
"e & % # @ O @ + + @ @ + o O O . O O + + + + O + + @ + O + o O : 3 $ @ @ O + + + O O + # O + o . O O @ @ @ O O @ @ # + + @ o O , ",
"e.3.O.l d n J ( P ,.' g a y 0 6 s t p v g f a g n ( p p p d i d g g Y n a i f g a l n v n i t < s f v n ( Y g v F J n p y g a S ",
"5.p.h u h Y P %.i.q.R R %.E * $ r 9 h $.L a f :.=.P W h h a u E n U U ,.h $.E L %.L | E Y h ; % d 5.Y q.E $.f L E =.P h a &.L l ",
"E L u L a P P h R Y &.&.a u + $ p a L P L u L Y h L L h u w u P u h h h u L h a h h U a u w O % v :.h P Y h h h h a a h a h u h ",
"n h h h h L R h L -.-.h E w * @ d E L %.Y $.;.$.E W P h w u a a u L h h h h u L :.E h h w 9 O % n L h h U &.=.U h h L h h h u P ",
"P P P E h E P h R &.L h h w # @ a a h =.Y Y $.L L L h u w a u u E L Y P h a h U E L h h h 9 # % g U h U =.&.&.=.h L h a %.E a h ",
"%.L h L a %.h h L $.R a a w O @ t u h a h Y a a a h w w u w h w h L a w h L h h P l Y L h u # * v h L L h h E U u u L a Y a a :.",
"h u h h E 5.;.;.R h L a h w # @ i h a h L a h h h a w a a Y P u Y L h w L h h $.=.&.5.5.;.w * % ,.5.l L U Y h h L u =.h 7.u h h ",
"E h E E E 5.%.L h u a h a w O @ i h a h L a L h a u u h ;.;.Y 9 L u a u h u h Y Y 5.y.y.| w ; @ Y 9.:.=.$.L u h a u h h Y u %.Y ",
"h E P P >.R a L L a a L a u # $ i w h a h a h a u a h $.$.h a a a u h a $.Y L $.5.i.q.5.Y u * $ U i.$.8.&.a w h h U h U U h U a ",
"Y L a P h W a h a L =.L h w * @ d a E h a h h L h h W E h a h u a h h E L u L 5.y.y.8.q.L u * # v Y a L L h =.h E E a a P h h L ",
"P a a h h h a a L L Y h u 9 @ $ d h h E u Y h f L a h E h h u w a a a h h a =.q.8.;.5.h h 9 * @ i h h ;.E Y L L h Y h L a a h L ",
"w u P h h h u a h R L h a 9 * $ d %.h h h h a a a h h L L a a h u a a h 5.$.=.$.h h h w u 9 * # f h L W h Y Y L h L L a a a h h ",
"h E L u L L h u h L L h u w # % a h h h h h a w w a a i h a w 9 w u h h =.h h h h =.u h h w $ $ t h h L h h h a a $.h h 9 h Y h ",
"a u w w a a a a u u u w 9 9 # % i u u a h u u u w u a u u u 4 9 u u 9 a h a h a u a u 9 9 9 @ $ i h a h h h a u u h w 9 u h u u ",
"# @ # * ; * * = ; * * * # * . * t * % * * * # # * * * * * * @ * * * # ; * * * * = ; # . O * . + u 4 ; = * ; ; * = * O * * ; * * ",
"o + O @ @ @ # $ % @ @ @ @ $ % 6 8 = @ + + $ $ # # $ @ o @ + O . o O + + O + O o + + O O @ @ o : 7 % # O @ @ @ @ O @ @ + @ @ O o ",
"g n l J J v } F S n S n f #.,.( / O.v v n g d g } O./ v g q 0 6 i p v g g n | n Y S p g p s n O.t.| Y } Y #./ Q v g ( i g d t 6 ",
"d :.Y =.5.%.U U h h E Y h %.E u a u h P a a h L P h h h w 4 1 & p n L L L 5.$.L 7.8.;.h h %.8.s.d.=.%.5.5.8.E P E %.E P L E 4 % ",
"f U u $.U l h a u a a u u L h w 9 w w u u h h u h h a h w w ; % a &.h L h h h a $.L L h h ;.&.$.P h h %.E P a u a a L h h 9 * % ",
"i a h L U h u a L L L u h a h 9 9 a u u a a w a L h a a w w * # s | Y P h L Y L U h &.$.P a n u h a h U P h h a a L P a w u ; $ ",
"t u a a h h a h %.%.U a a w u w w u 9 u P L h h h h a a u u ; $ p $.u a h h L Y U :.$.L u a h h %.h P h P a a h P P u u w u * % ",
"y a h h a h h h E U h a u w h w u w u a h E h %.h a a a h u ; % f h L h h Y -.=.5.&.&.E L a h E E L h L h u h P $.h a u w 9 * # ",
"i Y h h a h h u L h L h 4 w h u u u w Y a h a h h h h U h a ; % a a w w h =.$.=.;.i.;.E h 9 h h h h h h u h L h h u h 1 9 9 ; $ ",
"i L a a h a h h h L a 4 w h a a h u 9 l P h a h h h h P h a ; % p L a h h =.W 5.7.5.;.&.Y u h u u a h a h %.$.h W L w 4 a t ; % ",
"p h h h Y h h Y U U a a h u w h u u h u h u u h h a a h h h ; % y %.u w a :.Y 5.y.;.Y =.h w a u a a h h Y P L E L a h h a u ; # ",
"a L h f Y U L L L a u 9 h w h L w u w w a w a h h h L Y h h ; $ p h w L L Y E 5.Y h L =.h h a a h a L h h h h P a P u u 9 a * $ ",
"f L h a u h h h Y a a u u u u u h h h h h h Y Y R L L W h u ; % q a u P $.$.:.Y E Y Y E L a u U h h 5.h h h L h h h h a i u ; $ ",
"s h a a u h L L Y h h L a a u h Y h h L $.L Y %.h a h a a u ; # t L a a Y L $.Y h h $.&.E U a h E h %.a h U L h Y P R Y u 9 # $ ",
"u L a a u h h h h a u h w w a L a n u u h P Y h h L h a w 4 # % g h L &.E U &.&.a U E &.E L Y h h w U a u U U &.E &.L u 9 4 * # ",
"y h w u w u u w w w w w w u l u u w u a u a a u a h h a a 4 % @ d u u h w h a w w a u h h a w u u u u a u h u a h u u 9 4 4 # $ ",
"q 1 * # # * * * * # # # # # * # * * * * * * * * ; * = * * O . $ 0 ; = * # * * * * = * ; * * O # @ # * # * * = * * * # . . O . @ ",
"5 @ + @ @ O @ O @ @ @ @ + O O X o O + O + @ # % % % @ # % % % < 6 # + + + @ + + @ @ O # + o O o @ + # % # @ @ @ + O o + O o @ , ",
"g f f n ( Y / n v n g y p p a 2 f p S g g n ( 3.,.F ( ,.5.g ( ( a g g l p l n n ( ,.g v d t 0 6 [ #.g J Y g d v d d a e i g v g ",
"h n %.;.=.=.5.,.Y 5.h u h $.4 % n :.9.:.%.7.=.8.7.E 5.&.Y h h h a h h h a E U E 7.9.h h w 9 ; % n %.h h R h %.%.a h w u u h $.U ",
"h u h P h L P h h h 4 w $.l 1 % F 5.U L E L h %.E h h E h w u h l E L w h L E E ;.E h a w w * % p u u u h a Y L a a h 1 a h P a ",
"h w P Y E ;.E h w 9 u E =.h 4 % n 7.h &.L E P =.P h %.5.u w u $.%.h a a L &.5.:.=.h h u 4 9 ; % l L u f h h Y a a h u 4 a u h P ",
"u a Y $.U $.h a 9 w u h u h ; % f %.=.=.=.%.h h h P Y -.h h h L U u h L L &.E &.h h h 9 4 w * @ a L a a h a u u h U 9 w u h h a ",
"h u =.;.$.h P w w w h a h h ; # p E %.&.h h P U L ,.5.$.a w h Y u a E h L h L h h L u 9 a 4 * $ i h h h h u a h P h 9 w w P h h ",
"h a y.=.E %.$.a h u L L h h ; % i P h h h E E E $.8.L a L h h L %.L P Y Y ;.&.;.$.h u w 9 9 * @ d h a u h a h n P a u w u a a h ",
"Y =.=.P =.h a h L h u P L u ; % i P h h L h %.U =.y.u h W h R $.u h h L $.P a h a h a u u 9 ; $ g h P h h a a P h a a h h h L E ",
"h :.L %.&.h L h Y a w U P a # % d $.P h U =.&.5.:.&.Y U U h P U h Y Y $.a a h P h u 9 9 w w * % d h h h h h h h h a h a h Y %.P ",
"E &.E U %.$.E U U u w a E u * @ n :.P U ;.9.7.5.L &.h a h a h ;.h Y a h a L Y $.h a h u 9 a * % f h P h h R Y L h P P h h E P a ",
"=.$.E L =.&.U E &.h w E h w 1 % n P h &.;.p.E u E h 9 u u a Y E u a h L P L E Y L h h a u h 1 * d P h h P $.Y h h h h u u E h 5.",
"h h h E &.$.L L h u h ;.L h ; @ g &.P 9.$.7.P L P a u w w h E h u a a L h h P L h L u a w a ; % d h 9 L h P h h h h L h u h P h ",
"u a h L E P U h h u Y h a w # % f ;.h P h L u a u a u 9 u L h a a a L P a L U L h u u a 4 u * % f h u Y E h h h a h a h 9 a u u ",
"w w a h h a a u h a w w w 9 * % J E L L a h u u w w 9 9 w a w 9 w a u a u a u u u w w 9 4 9 * % i u u a u a u u u a u 9 4 9 w u ",
"* # * * * * * = * * @ * # * O % y 1 ; = * * % * # # O @ # # O # * * # ; * # # # O O O @ * * . $ 0 ; * * * % # * * * * @ # * # # ",
"o o O @ @ + # + $ # $ $ + @ % 3 q = % % # O + @ $ % # # + @ @ O + % % O @ + + O o @ @ + O + O : 6 % @ o o o @ # @ + o O o o o . "
};
